<svg width="26" height="26" viewBox="0 0 26 26" fill="none" xmlns="http://www.w3.org/2000/svg">
<path d="M2.16667 5.41667H6.00708C6.13904 6.1699 6.53237 6.85248 7.11789 7.34435C7.70342 7.83622 8.44363 8.10586 9.20833 8.10586C9.97304 8.10586 10.7133 7.83622 11.2988 7.34435C11.8843 6.85248 12.2776 6.1699 12.4096 5.41667H23.8333C23.977 5.41667 24.1148 5.3596 24.2164 5.25802C24.3179 5.15643 24.375 5.01866 24.375 4.875C24.375 4.73134 24.3179 4.59357 24.2164 4.49198C24.1148 4.3904 23.977 4.33333 23.8333 4.33333H12.4096C12.2776 3.5801 11.8843 2.89752 11.2988 2.40565C10.7133 1.91378 9.97304 1.64413 9.20833 1.64413C8.44363 1.64413 7.70342 1.91378 7.11789 2.40565C6.53237 2.89752 6.13904 3.5801 6.00708 4.33333H2.16667C2.02301 4.33333 1.88523 4.3904 1.78365 4.49198C1.68207 4.59357 1.625 4.73134 1.625 4.875C1.625 5.01866 1.68207 5.15643 1.78365 5.25802C1.88523 5.3596 2.02301 5.41667 2.16667 5.41667ZM9.20833 2.70833C9.63686 2.70833 10.0558 2.83541 10.4121 3.07348C10.7684 3.31156 11.0461 3.64995 11.2101 4.04585C11.3741 4.44176 11.417 4.8774 11.3334 5.29769C11.2498 5.71799 11.0434 6.10405 10.7404 6.40706C10.4374 6.71008 10.0513 6.91643 9.63103 7.00003C9.21074 7.08364 8.77509 7.04073 8.37919 6.87674C7.98328 6.71275 7.64489 6.43504 7.40682 6.07873C7.16874 5.72243 7.04167 5.30353 7.04167 4.875C7.04167 4.30036 7.26994 3.74926 7.67627 3.34293C8.0826 2.93661 8.6337 2.70833 9.20833 2.70833ZM23.8333 12.4583H19.9929C19.861 11.7051 19.4676 11.0225 18.8821 10.5307C18.2966 10.0388 17.5564 9.76913 16.7917 9.76913C16.027 9.76913 15.2867 10.0388 14.7012 10.5307C14.1157 11.0225 13.7224 11.7051 13.5904 12.4583H2.16667C2.02301 12.4583 1.88523 12.5154 1.78365 12.617C1.68207 12.7186 1.625 12.8563 1.625 13C1.625 13.1437 1.68207 13.2814 1.78365 13.383C1.88523 13.4846 2.02301 13.5417 2.16667 13.5417H13.5904C13.7224 14.2949 14.1157 14.9775 14.7012 15.4693C15.2867 15.9612 16.027 16.2309 16.7917 16.2309C17.5564 16.2309 18.2966 15.9612 18.8821 15.4693C19.4676 14.9775 19.861 14.2949 19.9929 13.5417H23.8333C23.977 13.5417 24.1148 13.4846 24.2164 13.383C24.3179 13.2814 24.375 13.1437 24.375 13C24.375 12.8563 24.3179 12.7186 24.2164 12.617C24.1148 12.5154 23.977 12.4583 23.8333 12.4583ZM16.7917 15.1667C16.3631 15.1667 15.9442 15.0396 15.5879 14.8015C15.2316 14.5634 14.9539 14.2251 14.7899 13.8291C14.6259 13.4332 14.583 12.9976 14.6666 12.5773C14.7502 12.157 14.9566 11.7709 15.2596 11.4679C15.5626 11.1649 15.9487 10.9586 16.369 10.875C16.7893 10.7914 17.2249 10.8343 17.6208 10.9983C18.0167 11.1622 18.3551 11.44 18.5932 11.7963C18.8313 12.1526 18.9583 12.5715 18.9583 13C18.9583 13.5746 18.7301 14.1257 18.3237 14.5321C17.9174 14.9384 17.3663 15.1667 16.7917 15.1667ZM23.8333 20.5833H12.4096C12.2776 19.8301 11.8843 19.1475 11.2988 18.6556C10.7133 18.1638 9.97304 17.8941 9.20833 17.8941C8.44363 17.8941 7.70342 18.1638 7.11789 18.6556C6.53237 19.1475 6.13904 19.8301 6.00708 20.5833H2.16667C2.02301 20.5833 1.88523 20.6404 1.78365 20.742C1.68207 20.8436 1.625 20.9813 1.625 21.125C1.625 21.2687 1.68207 21.4064 1.78365 21.508C1.88523 21.6096 2.02301 21.6667 2.16667 21.6667H6.00708C6.13904 22.4199 6.53237 23.1025 7.11789 23.5943C7.70342 24.0862 8.44363 24.3559 9.20833 24.3559C9.97304 24.3559 10.7133 24.0862 11.2988 23.5943C11.8843 23.1025 12.2776 22.4199 12.4096 21.6667H23.8333C23.977 21.6667 24.1148 21.6096 24.2164 21.508C24.3179 21.4064 24.375 21.2687 24.375 21.125C24.375 20.9813 24.3179 20.8436 24.2164 20.742C24.1148 20.6404 23.977 20.5833 23.8333 20.5833ZM9.20833 23.2917C8.77981 23.2917 8.3609 23.1646 8.0046 22.9265C7.64829 22.6884 7.37058 22.3501 7.20659 21.9541C7.0426 21.5582 6.9997 21.1226 7.0833 20.7023C7.1669 20.282 7.37325 19.8959 7.67627 19.5929C7.97928 19.2899 8.36535 19.0836 8.78564 19C9.20593 18.9164 9.64157 18.9593 10.0375 19.1233C10.4334 19.2873 10.7718 19.565 11.0099 19.9213C11.2479 20.2776 11.375 20.6965 11.375 21.125C11.375 21.6996 11.1467 22.2507 10.7404 22.6571C10.3341 23.0634 9.78297 23.2917 9.20833 23.2917Z" fill="black"/>
</svg>
