<svg width="60" height="60" viewBox="0 0 60 60" fill="none" xmlns="http://www.w3.org/2000/svg">
    <path
        d="M4.24796 12.18L3.95996 12.468L3.98396 22.332C4.01996 31.92 4.03196 32.184 4.24796 32.352C4.45196 32.496 5.60396 32.52 11.304 32.52H18.12V30.72V28.92H12.6H7.07996V27.9V26.88H12.588H18.108L18.144 26.544L18.18 26.22L29.436 26.184L40.68 26.16V19.26C40.68 12.516 40.68 12.36 40.44 12.12C40.2 11.88 40.044 11.88 22.38 11.88H4.54796L4.24796 12.18ZM27.816 16.524L27.852 17.52H17.46H7.07996V16.584C7.07996 16.068 7.11596 15.6 7.16396 15.564C7.19996 15.516 11.868 15.492 17.508 15.504L27.78 15.54L27.816 16.524ZM27.816 22.224L27.78 23.22H17.46H7.13996L7.10396 22.224L7.06796 21.24H17.46H27.852L27.816 22.224Z"
        fill="#6D66C8" />
    <path
        d="M21.24 28.08C21.336 28.164 23.52 29.7 28.26 32.94C30.18 34.248 32.064 35.544 32.46 35.82C32.856 36.096 33.696 36.672 34.32 37.104C34.944 37.524 36.036 38.268 36.744 38.748L38.028 39.624L42.504 36.54C44.964 34.848 48.468 32.436 50.28 31.176C52.092 29.928 53.832 28.728 54.156 28.524C54.468 28.32 54.72 28.104 54.72 28.068C54.72 28.032 47.16 27.996 37.932 28.008C28.692 28.008 21.192 28.044 21.24 28.08Z"
        fill="#C4C3FB" />
    <path
        d="M19.9199 38.04C19.9199 45.504 19.9559 47.4 20.0759 47.328C20.1479 47.28 21.0599 46.692 22.0799 46.02C23.0999 45.348 24.8879 44.196 26.0399 43.44C27.1919 42.696 28.8959 41.592 29.8199 40.98C30.7439 40.38 32.0279 39.552 32.6759 39.132C33.3119 38.712 33.8399 38.328 33.8399 38.28C33.8399 38.232 33.1799 37.74 32.3759 37.188C31.5599 36.636 30.5279 35.928 30.0599 35.616C29.6039 35.292 28.3799 34.464 27.3599 33.768C26.3399 33.072 25.0199 32.172 24.4199 31.764C23.8319 31.344 22.5719 30.48 21.6359 29.844L19.9199 28.668V38.04Z"
        fill="#C4C3FB" />
    <path
        d="M54.7801 29.532C54.1801 29.94 52.7041 30.96 51.4801 31.788C50.2561 32.616 48.4321 33.864 47.4361 34.56C46.4281 35.256 44.8201 36.348 43.8601 37.008C42.9001 37.656 42.1201 38.232 42.1201 38.28C42.1201 38.328 43.0681 38.988 44.2201 39.732C45.3721 40.488 47.1241 41.616 48.0961 42.252C49.0681 42.888 51.1081 44.22 52.6201 45.204C54.1441 46.188 55.5241 47.088 55.7161 47.208L56.0401 47.424V38.112C56.0401 32.988 55.9921 28.8 55.9441 28.8C55.8961 28.8 55.3681 29.136 54.7801 29.532Z"
        fill="#C4C3FB" />
    <path
        d="M31.9079 40.956C28.7519 43.032 25.0319 45.48 22.4999 47.112L20.9399 48.12H37.9679H54.9839L52.8479 46.716C51.6599 45.948 49.6439 44.64 48.3599 43.8C47.0759 42.96 44.8919 41.544 43.5239 40.644C42.1559 39.732 40.9679 39 40.8959 39C40.7519 39 39.2999 39.96 38.4839 40.596L38.0279 40.956L36.5999 39.972C35.8079 39.444 35.0999 39 35.0159 39.012C34.9319 39.012 33.5279 39.888 31.9079 40.956Z"
        fill="#C4C3FB" />
</svg>
    