<svg width="80" height="40" viewBox="0 0 80 40" fill="none" xmlns="http://www.w3.org/2000/svg">
<rect x="0.5" y="0.5" width="79" height="39" rx="3.5" fill="white" stroke="#C5C5C5"/>
<path d="M14.3999 14.3999H16.5999L15.4999 11.5999L14.3999 14.3999Z" fill="#2FABF7"/>
<path d="M41.6999 11.9999C41.4999 11.8999 41.1999 11.8999 40.8999 11.8999H38.8999V13.4999H40.8999C41.1999 13.4999 41.4999 13.4999 41.6999 13.3999C41.8999 13.2999 41.9999 12.9999 41.9999 12.6999C42.0999 12.2999 41.8999 12.0999 41.6999 11.9999Z" fill="#228FE0"/>
<path d="M63.1 9V10.2L62.5 9H57.8V10.2L57.2 9H50.8C49.7 9 48.8 9.2 48 9.6V9H43.5V9.6C43 9.2 42.4 9 41.6 9H25.5L24.4 11.5L23.3 9H18.2V10.2L17.6 9H13.3L11.3 13.7L9 18.9H14.1L14.7 17.3H16.1L16.7 18.9H22.5V17.7L23 18.9H25.9L26.4 17.7V18.9H40.3V16.3H40.5C40.7 16.3 40.7 16.3 40.7 16.6V18.8H47.9V18.2C48.5 18.5 49.4 18.8 50.6 18.8H53.6L54.2 17.2H55.6L56.2 18.8H62V17.3L62.9 18.8H67.6V9H63.1ZM29.3 17.4H27.6V11.9L25.2 17.4H23.7L21.3 11.9V17.4H17.9L17.2 15.9H13.8L13.2 17.5H11.3L14.3 10.4H16.8L19.6 17.1V10.4H22.3L24.5 15.2L26.5 10.4H29.3V17.4ZM36.1 11.9H32.2V13.2H36V14.6H32.2V16H36.1V17.5H30.5V10.4H36.1V11.9ZM43.6 14.8C43.8 15.2 43.9 15.5 43.9 16.1V17.5H42.2V16.6C42.2 16.2 42.2 15.6 41.9 15.2C41.6 14.9 41.3 14.9 40.7 14.9H38.9V17.5H37.2V10.4H41C41.9 10.4 42.5 10.4 43 10.7C43.5 11 43.8 11.5 43.8 12.3C43.8 13.4 43.1 14 42.6 14.2C43.1 14.3 43.4 14.6 43.6 14.8ZM46.6 17.4H44.9V10.3H46.6V17.4ZM66.3 17.4H63.9L60.7 12.1V17.4H57.3L56.7 15.9H53.2L52.6 17.5H50.7C49.9 17.5 48.9 17.3 48.3 16.7C47.7 16.1 47.4 15.3 47.4 14C47.4 13 47.6 12 48.3 11.2C48.8 10.6 49.7 10.4 50.8 10.4H52.4V11.9H50.8C50.2 11.9 49.9 12 49.5 12.3C49.2 12.6 49 13.2 49 13.9C49 14.7 49.1 15.2 49.5 15.6C49.8 15.9 50.2 16 50.7 16H51.4L53.7 10.5H56.2L59 17.2V10.5H61.5L64.4 15.4V10.5H66.1V17.4H66.3Z" fill="#0571C1"/>
<path d="M53.8002 14.3999H56.1002L55.0002 11.5999L53.8002 14.3999ZM36.8002 28.7999V23.0999L34.2002 25.8999L36.8002 28.7999Z" fill="#228FE0"/>
<path d="M26.1001 23.7998V25.0998H29.8001V26.4998H26.1001V27.9998H30.2001L32.1001 25.8998L30.3001 23.7998H26.1001Z" fill="#2FABF7"/>
<path d="M40.6 23.7998H38.5V25.5998H40.7C41.3 25.5998 41.7 25.2998 41.7 24.6998C41.6 24.0998 41.2 23.7998 40.6 23.7998Z" fill="#228FE0"/>
<path d="M71.4999 25.5V21H67.2999C66.3999 21 65.6999 21.2 65.1999 21.6V21H60.5999C59.8999 21 58.9999 21.2 58.5999 21.6V21H50.4999V21.6C49.8999 21.1 48.7999 21 48.2999 21H42.8999V21.6C42.3999 21.1 41.1999 21 40.5999 21H34.5999L33.1999 22.5L31.8999 21H22.8999V30.8H31.6999L33.0999 29.3L34.3999 30.8H39.7999V28.5H40.4999C41.1999 28.5 42.0999 28.5 42.7999 28.2V30.9H47.2999V28.3H47.4999C47.7999 28.3 47.7999 28.3 47.7999 28.6V30.9H61.3999C62.2999 30.9 63.1999 30.7 63.6999 30.3V30.9H67.9999C68.8999 30.9 69.7999 30.8 70.3999 30.4C71.3999 29.8 71.9999 28.7 71.9999 27.4C71.9999 26.7 71.7999 26 71.4999 25.5ZM40.4999 27.1H38.4999V29.5H35.2999L33.2999 27.2L31.1999 29.5H24.5999V22.4H31.2999L33.2999 24.7L35.3999 22.4H40.6999C41.9999 22.4 43.4999 22.8 43.4999 24.7C43.3999 26.7 41.9999 27.1 40.4999 27.1ZM50.4999 26.7C50.6999 27 50.7999 27.4 50.7999 28V29.4H49.0999V28.5C49.0999 28.1 49.0999 27.4 48.7999 27.1C48.5999 26.8 48.1999 26.8 47.5999 26.8H45.7999V29.4H44.0999V22.3H47.8999C48.6999 22.3 49.3999 22.3 49.8999 22.6C50.3999 22.9 50.7999 23.4 50.7999 24.2C50.7999 25.3 50.0999 25.9 49.5999 26.1C50.0999 26.3 50.3999 26.5 50.4999 26.7ZM57.3999 23.8H53.4999V25.1H57.2999V26.5H53.4999V27.9H57.3999V29.4H51.7999V22.3H57.3999V23.8ZM61.5999 29.4H58.3999V27.9H61.5999C61.8999 27.9 62.0999 27.9 62.2999 27.7C62.3999 27.6 62.4999 27.4 62.4999 27.2C62.4999 27 62.3999 26.8 62.2999 26.7C62.1999 26.6 61.9999 26.5 61.6999 26.5C60.0999 26.4 58.1999 26.5 58.1999 24.3C58.1999 23.3 58.7999 22.2 60.5999 22.2H63.8999V23.9H60.7999C60.4999 23.9 60.2999 23.9 60.0999 24C59.8999 24.1 59.8999 24.3 59.8999 24.5C59.8999 24.8 60.0999 24.9 60.2999 25C60.4999 25.1 60.6999 25.1 60.8999 25.1H61.7999C62.6999 25.1 63.2999 25.3 63.6999 25.7C63.9999 26 64.1999 26.5 64.1999 27.2C64.1999 28.7 63.2999 29.4 61.5999 29.4ZM70.1999 28.7C69.7999 29.1 69.0999 29.4 68.0999 29.4H64.8999V27.9H68.0999C68.3999 27.9 68.5999 27.9 68.7999 27.7C68.8999 27.6 68.9999 27.4 68.9999 27.2C68.9999 27 68.8999 26.8 68.7999 26.7C68.6999 26.6 68.4999 26.5 68.1999 26.5C66.5999 26.4 64.6999 26.5 64.6999 24.3C64.6999 23.3 65.2999 22.2 67.0999 22.2H70.3999V23.9H67.3999C67.0999 23.9 66.8999 23.9 66.6999 24C66.4999 24.1 66.4999 24.3 66.4999 24.5C66.4999 24.8 66.5999 24.9 66.8999 25C67.0999 25.1 67.2999 25.1 67.4999 25.1H68.3999C69.2999 25.1 69.8999 25.3 70.2999 25.7C70.3999 25.7 70.3999 25.8 70.3999 25.8C70.6999 26.2 70.7999 26.7 70.7999 27.2C70.7999 27.8 70.5999 28.3 70.1999 28.7Z" fill="#0571C1"/>
<path d="M48.6999 23.9999C48.4999 23.8999 48.1999 23.8999 47.8999 23.8999H45.8999V25.4999H47.8999C48.1999 25.4999 48.4999 25.4999 48.6999 25.3999C48.8999 25.2999 48.9999 24.9999 48.9999 24.6999C49.0999 24.2999 48.8999 24.0999 48.6999 23.9999Z" fill="#228FE0"/>
<path d="M41.7002 11.9999C41.5002 11.8999 41.2002 11.8999 40.9002 11.8999H38.9002V13.4999H40.9002C41.2002 13.4999 41.5002 13.4999 41.7002 13.3999C41.9002 13.2999 42.0002 12.9999 42.0002 12.6999C42.1002 12.2999 41.9002 12.0999 41.7002 11.9999ZM53.8002 14.3999H56.1002L55.0002 11.5999L53.8002 14.3999ZM36.8002 28.7999V23.0999L34.2002 25.8999L36.8002 28.7999ZM40.6002 23.7999H38.5002V25.5999H40.7002C41.3002 25.5999 41.7002 25.2999 41.7002 24.6999C41.6002 24.0999 41.2002 23.7999 40.6002 23.7999ZM48.7002 23.9999C48.5002 23.8999 48.2002 23.8999 47.9002 23.8999H45.9002V25.4999H47.9002C48.2002 25.4999 48.5002 25.4999 48.7002 25.3999C48.9002 25.2999 49.0002 24.9999 49.0002 24.6999C49.1002 24.2999 48.9002 24.0999 48.7002 23.9999Z" fill="#228FE0"/>
<path d="M39.8999 29.2L38.4999 27.7V29.4H35.1999L33.1999 27.1L30.9999 29.4H24.3999V22.4H31.0999L33.1999 24.7L34.1999 23.5L31.6999 21H22.8999V30.8H31.6999L33.1999 29.3L34.4999 30.8H39.8999V29.2Z" fill="#2FABF7"/>
<path d="M29.5 18.8L28.2 17.4H27.6V16.8L26.1 15.3L25.1 17.4H23.7L21.3 11.9V17.4H17.9L17.2 15.9H13.8L13.1 17.4H11.3L14.3 10.4H16.8L19.6 17.1V10.4H21.1L19.7 9H18.2V10.2L17.7 9H13.3L11.3 13.7L9 18.8H14.2L14.8 17.3H16.2L16.9 18.8H22.5V17.6L23 18.8H25.9L26.4 17.6V18.8H29.5Z" fill="#2FABF7"/>
<path d="M24.8998 14.2001L23.2998 12.6001L24.4998 15.2001L24.8998 14.2001Z" fill="#2FABF7"/>
<path d="M70.3998 30.3C71.2998 29.7 71.8998 28.7 71.9998 27.6L70.5998 26.2C70.6998 26.5 70.7998 26.8 70.7998 27.2C70.7998 27.8 70.5998 28.3 70.1998 28.7C69.7998 29.1 69.0998 29.4 68.0998 29.4H64.8998V27.9H68.0998C68.3998 27.9 68.5998 27.9 68.7998 27.7C68.8998 27.6 68.9998 27.4 68.9998 27.2C68.9998 27 68.8998 26.8 68.7998 26.7C68.6998 26.6 68.4998 26.5 68.1998 26.5C66.5998 26.4 64.6998 26.5 64.6998 24.3C64.6998 23.3 65.2998 22.4 66.7998 22.2L65.6998 21.1C65.4998 21.2 65.3998 21.3 65.2998 21.3V20.7H60.6998C59.9998 20.7 59.0998 20.9 58.6998 21.3V20.7H50.4998V21.3C49.8998 20.8 48.7998 20.7 48.2998 20.7H42.8998V21.3C42.3998 20.8 41.1998 20.7 40.5998 20.7H34.5998L33.1998 22.2L31.8998 20.7H30.7998L33.7998 23.7L35.2998 22.1H40.5998C41.8998 22.1 43.3998 22.5 43.3998 24.4C43.3998 26.4 41.9998 26.8 40.4998 26.8H38.4998V28.3L39.9998 29.8V28.3H40.4998C41.1998 28.3 42.0998 28.3 42.7998 28V30.7H47.2998V28.1H47.4998C47.7998 28.1 47.7998 28.1 47.7998 28.4V30.7H61.3998C62.2998 30.7 63.1998 30.5 63.6998 30.1V30.7H67.9998C68.7998 30.8 69.6998 30.7 70.3998 30.3ZM50.4998 26.7C50.6998 27 50.7998 27.4 50.7998 28V29.4H49.0998V28.5C49.0998 28.1 49.0998 27.4 48.7998 27.1C48.5998 26.8 48.1998 26.8 47.5998 26.8H45.7998V29.4H44.0998V22.3H47.8998C48.6998 22.3 49.3998 22.3 49.8998 22.6C50.3998 22.9 50.7998 23.4 50.7998 24.2C50.7998 25.3 50.0998 25.9 49.5998 26.1C50.0998 26.3 50.3998 26.5 50.4998 26.7ZM57.3998 23.8H53.4998V25.1H57.2998V26.5H53.4998V27.9H57.3998V29.4H51.7998V22.3H57.3998V23.8ZM61.5998 29.4H58.3998V27.9H61.5998C61.8998 27.9 62.0998 27.9 62.2998 27.7C62.3998 27.6 62.4998 27.4 62.4998 27.2C62.4998 27 62.3998 26.8 62.2998 26.7C62.1998 26.6 61.9998 26.5 61.6998 26.5C60.0998 26.4 58.1998 26.5 58.1998 24.3C58.1998 23.3 58.7998 22.2 60.5998 22.2H63.8998V23.9H60.7998C60.4998 23.9 60.2998 23.9 60.0998 24C59.8998 24.1 59.8998 24.3 59.8998 24.5C59.8998 24.8 60.0998 24.9 60.2998 25C60.4998 25.1 60.6998 25.1 60.8998 25.1H61.7998C62.6998 25.1 63.2998 25.3 63.6998 25.7C63.9998 26 64.1998 26.5 64.1998 27.2C64.1998 28.7 63.2998 29.4 61.5998 29.4Z" fill="#228FE0"/>
<path d="M66.3999 24.4999C66.3999 24.7999 66.4999 24.8999 66.7999 24.9999C66.9999 25.0999 67.1999 25.0999 67.3999 25.0999H68.2999C68.8999 25.0999 69.2999 25.1999 69.6999 25.3999L68.1999 23.8999H67.2999C66.9999 23.8999 66.7999 23.8999 66.5999 23.9999C66.4999 24.0999 66.3999 24.2999 66.3999 24.4999Z" fill="#228FE0"/>
<path d="M62.8999 18.4998L63.0999 18.7998H63.1999L62.8999 18.4998ZM57.3999 12.9998L59.0999 17.0998V14.6998L57.3999 12.9998Z" fill="#228FE0"/>
<path d="M40.2999 16.2999H40.4999C40.6999 16.2999 40.6999 16.2999 40.6999 16.5999V18.7999H47.8999V18.1999C48.4999 18.4999 49.3999 18.7999 50.5999 18.7999H53.5999L54.1999 17.1999H55.5999L56.1999 18.7999H61.9999V17.7999L60.5999 16.3999V17.4999H57.1999L56.6999 15.8999H53.1999L52.5999 17.4999H50.6999C49.8999 17.4999 48.8999 17.2999 48.2999 16.6999C47.6999 16.0999 47.3999 15.2999 47.3999 13.9999C47.3999 12.9999 47.5999 11.9999 48.2999 11.1999C48.7999 10.5999 49.6999 10.3999 50.7999 10.3999H52.3999V11.8999H50.7999C50.1999 11.8999 49.8999 11.9999 49.4999 12.2999C49.1999 12.5999 48.9999 13.1999 48.9999 13.8999C48.9999 14.6999 49.0999 15.1999 49.4999 15.5999C49.7999 15.8999 50.1999 15.9999 50.6999 15.9999H51.3999L53.6999 10.4999H54.6999L53.2999 9.09985H50.6999C49.5999 9.09985 48.6999 9.29985 47.8999 9.69985V9.09985H43.4999V9.69985C42.9999 9.29985 42.3999 9.09985 41.5999 9.09985H25.4999L24.3999 11.5999L23.2999 9.09985H18.8999L20.2999 10.4999H22.2999L23.9999 14.1999L24.5999 14.7999L26.3999 10.3999H29.1999V17.4999H27.4999V11.9999L25.7999 15.9999L28.6999 18.8999H40.1999L40.2999 16.2999ZM44.8999 10.3999H46.5999V17.4999H44.8999V10.3999ZM36.0999 11.8999H32.1999V13.1999H35.9999V14.5999H32.1999V15.9999H36.0999V17.4999H30.4999V10.3999H36.0999V11.8999ZM38.8999 17.3999H37.1999V10.2999H40.9999C41.8999 10.2999 42.4999 10.2999 42.9999 10.5999C43.4999 10.8999 43.7999 11.3999 43.7999 12.1999C43.7999 13.2999 43.0999 13.8999 42.5999 14.0999C42.9999 14.1999 43.2999 14.4999 43.3999 14.6999C43.5999 15.0999 43.6999 15.3999 43.6999 15.9999V17.3999H41.9999V16.4999C41.9999 16.0999 41.9999 15.4999 41.6999 15.0999C41.5999 14.8999 41.2999 14.8999 40.6999 14.8999H38.8999V17.3999Z" fill="#228FE0"/>
</svg>
