<svg width="35" height="35" viewBox="0 0 35 35" fill="none" xmlns="http://www.w3.org/2000/svg">
<path d="M17.5 35C7.84766 35 0 27.1523 0 17.5C0 7.84766 7.84766 0 17.5 0C27.1523 0 35 7.84766 35 17.5C35 27.1523 27.1523 35 17.5 35Z" fill="#C64A27"/>
<path d="M17.5 32.8398C8.75 32.8398 1.61328 25.7305 1.61328 16.9531C1.61328 8.17579 8.75 1.09375 17.5 1.09375C26.25 1.09375 33.3867 8.20312 33.3867 16.9805C33.3867 25.7578 26.25 32.8398 17.5 32.8398Z" fill="#D35127"/>
<path d="M17.5 2.1875C25.6484 2.1875 32.293 8.83204 32.293 16.9805C32.293 25.1289 25.6484 31.7734 17.5 31.7734C9.35154 31.7734 2.70703 25.1289 2.70703 16.9805C2.70703 8.83204 9.35154 2.1875 17.5 2.1875ZM17.5 0C8.12108 0 0.519531 7.60154 0.519531 16.9805C0.519531 26.3594 8.12108 33.9609 17.5 33.9609C26.8789 33.9609 34.4805 26.3594 34.4805 16.9805C34.4805 7.60154 26.8789 0 17.5 0Z" fill="#F16924"/>
<path d="M17.5 35C7.84766 35 0 27.1523 0 17.5C0 7.84766 7.84766 0 17.5 0C27.1523 0 35 7.84766 35 17.5C35 27.1523 27.1523 35 17.5 35Z" fill="#F18817"/>
<path d="M17.5 32.8398C8.75 32.8398 1.61328 25.7305 1.61328 16.9531C1.61328 8.17579 8.75 1.09375 17.5 1.09375C26.25 1.09375 33.3867 8.20312 33.3867 16.9805C33.3867 25.7578 26.25 32.8398 17.5 32.8398Z" fill="#F9D337"/>
<path d="M17.5 2.1875C25.6484 2.1875 32.293 8.83204 32.293 16.9805C32.293 25.1289 25.6484 31.7734 17.5 31.7734C9.35154 31.7734 2.70703 25.1289 2.70703 16.9805C2.70703 8.83204 9.35154 2.1875 17.5 2.1875ZM17.5 0C8.12108 0 0.519531 7.60154 0.519531 16.9805C0.519531 26.3594 8.12108 33.9609 17.5 33.9609C26.8789 33.9609 34.4805 26.3594 34.4805 16.9805C34.4805 7.60154 26.8789 0 17.5 0Z" fill="#F6B50C"/>
<g style="mix-blend-mode:screen" opacity="0.2">
<path d="M3.67383 12.3203L21.8204 31.1853C23.641 30.5346 25.3162 29.5077 26.7451 28.1664L6.57869 7.20062C5.28799 8.68591 4.29987 10.4274 3.67383 12.3203ZM31.0788 20.5748L13.8802 2.69531C12.7731 2.9676 11.7016 3.37748 10.6887 3.91608L29.9045 23.8923C30.4226 22.8394 30.8169 21.7256 31.0788 20.5748Z" fill="white"/>
</g>
<g filter="url(#filter0_d_1269_867)">
<path d="M8.48361 11.2632L8.38281 11.364L8.39121 14.8164C8.40381 18.1722 8.40801 18.2646 8.48361 18.3234C8.55501 18.3738 8.95821 18.3822 10.9532 18.3822H13.3388V17.7522V17.1222H11.4068H9.47481V16.7652V16.4082H11.4026H13.3346L13.3472 16.2906L13.3598 16.1772L17.2994 16.1646L21.2348 16.1562V13.7412C21.2348 11.3808 21.2348 11.3262 21.1508 11.2422C21.0668 11.1582 21.0122 11.1582 14.8298 11.1582H8.58861L8.48361 11.2632ZM16.7324 12.7836L16.745 13.1322H13.1078H9.47481V12.8046C9.47481 12.624 9.48741 12.4602 9.50421 12.4476C9.51681 12.4308 11.1506 12.4224 13.1246 12.4266L16.7198 12.4392L16.7324 12.7836ZM16.7324 14.7786L16.7198 15.1272H13.1078H9.49581L9.48321 14.7786L9.47061 14.4342H13.1078H16.745L16.7324 14.7786Z" fill="#F18817"/>
<path d="M14.4317 16.8278C14.4653 16.8572 15.2297 17.3948 16.8887 18.5288C17.5607 18.9866 18.2201 19.4402 18.3587 19.5368C18.4973 19.6334 18.7913 19.835 19.0097 19.9862C19.2281 20.1332 19.6103 20.3936 19.8581 20.5616L20.3075 20.8682L21.8741 19.7888C22.7351 19.1966 23.9615 18.3524 24.5957 17.9114C25.2299 17.4746 25.8389 17.0546 25.9523 16.9832C26.0615 16.9118 26.1497 16.8362 26.1497 16.8236C26.1497 16.811 23.5037 16.7984 20.2739 16.8026C17.0399 16.8026 14.4149 16.8152 14.4317 16.8278Z" fill="#F18817"/>
<path d="M13.9688 20.3134C13.9688 22.9258 13.9813 23.5894 14.0233 23.5642C14.0485 23.5474 14.3677 23.3416 14.7247 23.1064C15.0817 22.8712 15.7075 22.468 16.1107 22.2034C16.5139 21.943 17.1104 21.5566 17.4337 21.3424C17.7571 21.1324 18.2066 20.8426 18.4334 20.6956C18.656 20.5486 18.8408 20.4142 18.8408 20.3974C18.8408 20.3806 18.6097 20.2084 18.3284 20.0152C18.0427 19.822 17.6815 19.5742 17.5177 19.465C17.3581 19.3516 16.9297 19.0618 16.5727 18.8182C16.2157 18.5746 15.7537 18.2596 15.5438 18.1168C15.3379 17.9698 14.8969 17.6674 14.5693 17.4448L13.9688 17.0332V20.3134Z" fill="#F18817"/>
<path d="M26.1693 17.3363C25.9593 17.4791 25.4427 17.8361 25.0143 18.1259C24.5859 18.4157 23.9475 18.8525 23.5989 19.0961C23.2461 19.3397 22.6833 19.7219 22.3473 19.9529C22.0113 20.1797 21.7383 20.3813 21.7383 20.3981C21.7383 20.4149 22.0701 20.6459 22.4733 20.9063C22.8765 21.1709 23.4897 21.5657 23.8299 21.7883C24.1701 22.0109 24.8841 22.4771 25.4133 22.8215C25.9467 23.1659 26.4297 23.4809 26.4969 23.5229L26.6103 23.5985V20.3393C26.6103 18.5459 26.5935 17.0801 26.5767 17.0801C26.5599 17.0801 26.3751 17.1977 26.1693 17.3363Z" fill="#F18817"/>
<path d="M18.165 21.334C17.0604 22.0606 15.7584 22.9174 14.8722 23.4886L14.3262 23.8414H20.286H26.2416L25.494 23.35C25.0782 23.0812 24.3726 22.6234 23.9232 22.3294C23.4738 22.0354 22.7094 21.5398 22.2306 21.2248C21.7518 20.9056 21.336 20.6494 21.3108 20.6494C21.2604 20.6494 20.7522 20.9854 20.4666 21.208L20.307 21.334L19.8072 20.9896C19.53 20.8048 19.2822 20.6494 19.2528 20.6536C19.2234 20.6536 18.732 20.9602 18.165 21.334Z" fill="#F18817"/>
</g>
<defs>
<filter id="filter0_d_1269_867" x="6.38281" y="10.1582" width="22.2266" height="16.6836" filterUnits="userSpaceOnUse" color-interpolation-filters="sRGB">
<feFlood flood-opacity="0" result="BackgroundImageFix"/>
<feColorMatrix in="SourceAlpha" type="matrix" values="0 0 0 0 0 0 0 0 0 0 0 0 0 0 0 0 0 0 127 0" result="hardAlpha"/>
<feOffset dy="1"/>
<feGaussianBlur stdDeviation="1"/>
<feComposite in2="hardAlpha" operator="out"/>
<feColorMatrix type="matrix" values="0 0 0 0 0 0 0 0 0 0 0 0 0 0 0 0 0 0 0.25 0"/>
<feBlend mode="normal" in2="BackgroundImageFix" result="effect1_dropShadow_1269_867"/>
<feBlend mode="normal" in="SourceGraphic" in2="effect1_dropShadow_1269_867" result="shape"/>
</filter>
</defs>
</svg>
