<svg width="66" height="36" viewBox="0 0 66 36" fill="none" xmlns="http://www.w3.org/2000/svg">
<g filter="url(#filter0_f_1269_964)">
<path d="M55.2606 26.6686C50.3575 26.6686 46.3711 22.6822 46.3711 17.7791C46.3711 12.876 50.3575 8.88965 55.2606 8.88965C60.1637 8.88965 64.1501 12.876 64.1501 17.7791C64.1501 22.6822 60.1637 26.6686 55.2606 26.6686Z" fill="#C64A27"/>
<path d="M55.2614 25.5714C50.8166 25.5714 47.1914 21.96 47.1914 17.5014C47.1914 13.0427 50.8166 9.44531 55.2614 9.44531C59.7061 9.44531 63.3314 13.0566 63.3314 17.5153C63.3314 21.9739 59.7061 25.5714 55.2614 25.5714Z" fill="#D35127"/>
<path d="M55.2604 10.0008C59.3996 10.0008 62.7748 13.376 62.7748 17.5152C62.7748 21.6544 59.3996 25.0296 55.2604 25.0296C51.1212 25.0296 47.746 21.6544 47.746 17.5152C47.746 13.376 51.1212 10.0008 55.2604 10.0008ZM55.2604 8.88965C50.4962 8.88965 46.6348 12.751 46.6348 17.5152C46.6348 22.2794 50.4962 26.1408 55.2604 26.1408C60.0246 26.1408 63.886 22.2794 63.886 17.5152C63.886 12.751 60.0246 8.88965 55.2604 8.88965Z" fill="#F16924"/>
<path d="M55.2606 26.6686C50.3575 26.6686 46.3711 22.6822 46.3711 17.7791C46.3711 12.876 50.3575 8.88965 55.2606 8.88965C60.1637 8.88965 64.1501 12.876 64.1501 17.7791C64.1501 22.6822 60.1637 26.6686 55.2606 26.6686Z" fill="#F18817"/>
<path d="M55.2614 25.5714C50.8166 25.5714 47.1914 21.96 47.1914 17.5014C47.1914 13.0427 50.8166 9.44531 55.2614 9.44531C59.7061 9.44531 63.3314 13.0566 63.3314 17.5153C63.3314 21.9739 59.7061 25.5714 55.2614 25.5714Z" fill="#F9D337"/>
<path d="M55.2604 10.0008C59.3996 10.0008 62.7748 13.376 62.7748 17.5152C62.7748 21.6544 59.3996 25.0296 55.2604 25.0296C51.1212 25.0296 47.746 21.6544 47.746 17.5152C47.746 13.376 51.1212 10.0008 55.2604 10.0008ZM55.2604 8.88965C50.4962 8.88965 46.6348 12.751 46.6348 17.5152C46.6348 22.2794 50.4962 26.1408 55.2604 26.1408C60.0246 26.1408 63.886 22.2794 63.886 17.5152C63.886 12.751 60.0246 8.88965 55.2604 8.88965Z" fill="#F6B50C"/>
<g style="mix-blend-mode:screen" opacity="0.2">
<path d="M48.2383 15.148L57.4562 24.7309C58.3811 24.4004 59.232 23.8787 59.9578 23.1973L49.7139 12.5474C49.0582 13.3018 48.5563 14.1865 48.2383 15.148ZM62.1592 19.3411L53.4229 10.2588C52.8605 10.3971 52.3161 10.6053 51.8016 10.8789L61.5627 21.0262C61.8259 20.4914 62.0262 19.9256 62.1592 19.3411Z" fill="white"/>
</g>
<mask id="mask0_1269_964" style="mask-type:luminance" maskUnits="userSpaceOnUse" x="49" y="12" width="12" height="12">
<path d="M60.5951 12.4453H49.9277V23.1127H60.5951V12.4453Z" fill="white"/>
</mask>
<g mask="url(#mask0_1269_964)">
<g filter="url(#filter1_d_1269_964)">
<path d="M50.6821 14.611L50.6309 14.6622L50.6351 16.4159C50.6415 18.1206 50.6437 18.1675 50.6821 18.1974C50.7183 18.223 50.9231 18.2272 51.9365 18.2272H53.1484V17.9072V17.5872H52.167H51.1856V17.4058V17.2245H52.1648H53.1462L53.1526 17.1648L53.159 17.1072L55.1602 17.1008L57.1593 17.0965V15.8697C57.1593 14.6707 57.1593 14.643 57.1166 14.6003C57.074 14.5576 57.0462 14.5576 53.9057 14.5576H50.7354L50.6821 14.611ZM54.8722 15.3833L54.8786 15.5604H53.031H51.1856V15.394C51.1856 15.3022 51.192 15.219 51.2005 15.2126C51.2069 15.2041 52.0368 15.1998 53.0396 15.202L54.8658 15.2084L54.8722 15.3833ZM54.8722 16.3967L54.8658 16.5738H53.031H51.1962L51.1898 16.3967L51.1834 16.2218H53.031H54.8786L54.8722 16.3967Z" fill="#F18817"/>
<path d="M53.7032 17.438C53.7202 17.4529 54.1085 17.726 54.9512 18.302C55.2926 18.5346 55.6276 18.765 55.698 18.814C55.7684 18.8631 55.9177 18.9655 56.0287 19.0423C56.1396 19.117 56.3337 19.2493 56.4596 19.3346L56.6879 19.4904L57.4837 18.9421C57.921 18.6412 58.544 18.2124 58.8662 17.9884C59.1883 17.7665 59.4977 17.5532 59.5553 17.5169C59.6108 17.4806 59.6556 17.4422 59.6556 17.4358C59.6556 17.4294 58.3115 17.423 56.6708 17.4252C55.028 17.4252 53.6946 17.4316 53.7032 17.438Z" fill="#F18817"/>
<path d="M53.4688 19.2092C53.4688 20.5362 53.4752 20.8733 53.4965 20.8605C53.5093 20.852 53.6715 20.7475 53.8528 20.628C54.0342 20.5085 54.3521 20.3037 54.5569 20.1693C54.7617 20.037 55.0646 19.8407 55.2289 19.7319C55.3932 19.6253 55.6215 19.478 55.7367 19.4034C55.8498 19.3287 55.9436 19.2604 55.9436 19.2519C55.9436 19.2434 55.8262 19.1559 55.6833 19.0577C55.5382 18.9596 55.3548 18.8337 55.2716 18.7783C55.1905 18.7207 54.9728 18.5734 54.7915 18.4497C54.6101 18.326 54.3755 18.166 54.2689 18.0934C54.1643 18.0187 53.9402 17.8651 53.7738 17.7521L53.4688 17.543V19.2092Z" fill="#F18817"/>
<path d="M59.6668 17.6966C59.5601 17.7691 59.2977 17.9505 59.0801 18.0977C58.8625 18.2449 58.5382 18.4668 58.3611 18.5905C58.1819 18.7143 57.896 18.9084 57.7253 19.0257C57.5547 19.141 57.416 19.2434 57.416 19.2519C57.416 19.2604 57.5845 19.3778 57.7893 19.51C57.9941 19.6445 58.3056 19.845 58.4784 19.9581C58.6513 20.0712 59.014 20.308 59.2828 20.4829C59.5537 20.6579 59.7991 20.8179 59.8332 20.8392L59.8908 20.8776V19.222C59.8908 18.311 59.8823 17.5664 59.8737 17.5664C59.8652 17.5664 59.7713 17.6262 59.6668 17.6966Z" fill="#F18817"/>
<path d="M55.6004 19.7267C55.0392 20.0958 54.3779 20.531 53.9277 20.8211L53.6504 21.0004H56.6778H59.703L59.3233 20.7507C59.1121 20.6142 58.7536 20.3816 58.5254 20.2323C58.2971 20.083 57.9088 19.8312 57.6656 19.6712C57.4223 19.5091 57.2111 19.3789 57.1983 19.3789C57.1727 19.3789 56.9146 19.5496 56.7695 19.6627L56.6884 19.7267L56.4345 19.5517C56.2937 19.4579 56.1679 19.3789 56.1529 19.381C56.138 19.381 55.8884 19.5368 55.6004 19.7267Z" fill="#F18817"/>
</g>
</g>
</g>
<g filter="url(#filter2_f_1269_964)">
<path d="M9.8895 26.6686C4.98638 26.6686 1 22.6822 1 17.7791C1 12.876 4.98638 8.88965 9.8895 8.88965C14.7926 8.88965 18.779 12.876 18.779 17.7791C18.779 22.6822 14.7926 26.6686 9.8895 26.6686Z" fill="#C64A27"/>
<path d="M9.89031 25.5714C5.44556 25.5714 1.82031 21.96 1.82031 17.5014C1.82031 13.0427 5.44556 9.44531 9.89031 9.44531C14.3351 9.44531 17.9603 13.0566 17.9603 17.5153C17.9603 21.9739 14.3351 25.5714 9.89031 25.5714Z" fill="#D35127"/>
<path d="M9.88926 10.0008C14.0284 10.0008 17.4037 13.376 17.4037 17.5152C17.4037 21.6544 14.0284 25.0296 9.88926 25.0296C5.75008 25.0296 2.37485 21.6544 2.37485 17.5152C2.37485 13.376 5.75008 10.0008 9.88926 10.0008ZM9.88926 8.88965C5.12504 8.88965 1.26367 12.751 1.26367 17.5152C1.26367 22.2794 5.12504 26.1408 9.88926 26.1408C14.6535 26.1408 18.5149 22.2794 18.5149 17.5152C18.5149 12.751 14.6535 8.88965 9.88926 8.88965Z" fill="#F16924"/>
<path d="M9.8895 26.6686C4.98638 26.6686 1 22.6822 1 17.7791C1 12.876 4.98638 8.88965 9.8895 8.88965C14.7926 8.88965 18.779 12.876 18.779 17.7791C18.779 22.6822 14.7926 26.6686 9.8895 26.6686Z" fill="#F18817"/>
<path d="M9.89031 25.5714C5.44556 25.5714 1.82031 21.96 1.82031 17.5014C1.82031 13.0427 5.44556 9.44531 9.89031 9.44531C14.3351 9.44531 17.9603 13.0566 17.9603 17.5153C17.9603 21.9739 14.3351 25.5714 9.89031 25.5714Z" fill="#F9D337"/>
<path d="M9.88926 10.0008C14.0284 10.0008 17.4037 13.376 17.4037 17.5152C17.4037 21.6544 14.0284 25.0296 9.88926 25.0296C5.75008 25.0296 2.37485 21.6544 2.37485 17.5152C2.37485 13.376 5.75008 10.0008 9.88926 10.0008ZM9.88926 8.88965C5.12504 8.88965 1.26367 12.751 1.26367 17.5152C1.26367 22.2794 5.12504 26.1408 9.88926 26.1408C14.6535 26.1408 18.5149 22.2794 18.5149 17.5152C18.5149 12.751 14.6535 8.88965 9.88926 8.88965Z" fill="#F6B50C"/>
<g style="mix-blend-mode:screen" opacity="0.2">
<path d="M2.86719 15.148L12.0851 24.7309C13.0099 24.4004 13.8609 23.8787 14.5867 23.1973L4.34277 12.5474C3.68714 13.3018 3.1852 14.1865 2.86719 15.148ZM16.7881 19.3411L8.05176 10.2588C7.48937 10.3971 6.94505 10.6053 6.43054 10.8789L16.1916 21.0262C16.4548 20.4914 16.655 19.9256 16.7881 19.3411Z" fill="white"/>
</g>
<mask id="mask1_1269_964" style="mask-type:luminance" maskUnits="userSpaceOnUse" x="4" y="12" width="12" height="12">
<path d="M15.224 12.4453H4.55664V23.1127H15.224V12.4453Z" fill="white"/>
</mask>
<g mask="url(#mask1_1269_964)">
<g filter="url(#filter3_d_1269_964)">
<path d="M5.31097 14.611L5.25977 14.6622L5.26404 16.4159C5.27044 18.1206 5.27257 18.1675 5.31097 18.1974C5.34724 18.223 5.55206 18.2272 6.56546 18.2272H7.77728V17.9072V17.5872H6.79588H5.81447V17.4058V17.2245H6.79374H7.77514L7.78154 17.1648L7.78794 17.1072L9.78915 17.1008L11.7882 17.0965V15.8697C11.7882 14.6707 11.7882 14.643 11.7455 14.6003C11.7029 14.5576 11.6751 14.5576 8.53466 14.5576H5.36431L5.31097 14.611ZM9.50113 15.3833L9.50753 15.5604H7.65993H5.81447V15.394C5.81447 15.3022 5.82088 15.219 5.82941 15.2126C5.83581 15.2041 6.66573 15.1998 7.66847 15.202L9.49473 15.2084L9.50113 15.3833ZM9.50113 16.3967L9.49473 16.5738H7.65993H5.82514L5.81874 16.3967L5.81234 16.2218H7.65993H9.50753L9.50113 16.3967Z" fill="#F18817"/>
<path d="M8.33207 17.438C8.34913 17.4529 8.73743 17.726 9.58015 18.302C9.92151 18.5346 10.2565 18.765 10.3269 18.814C10.3973 18.8631 10.5466 18.9655 10.6576 19.0423C10.7685 19.117 10.9627 19.2493 11.0885 19.3346L11.3168 19.4904L12.1126 18.9421C12.55 18.6412 13.1729 18.2124 13.4951 17.9884C13.8173 17.7665 14.1266 17.5532 14.1842 17.5169C14.2397 17.4806 14.2845 17.4422 14.2845 17.4358C14.2845 17.4294 12.9404 17.423 11.2997 17.4252C9.65696 17.4252 8.32353 17.4316 8.33207 17.438Z" fill="#F18817"/>
<path d="M8.09766 19.2082C8.09766 20.5352 8.10406 20.8723 8.12539 20.8595C8.13819 20.851 8.30034 20.7465 8.48168 20.627C8.66303 20.5075 8.98092 20.3027 9.18573 20.1683C9.39055 20.036 9.6935 19.8397 9.85778 19.7309C10.0221 19.6243 10.2503 19.477 10.3655 19.4024C10.4786 19.3277 10.5725 19.2594 10.5725 19.2509C10.5725 19.2424 10.4551 19.1549 10.3122 19.0567C10.1671 18.9586 9.98365 18.8327 9.90045 18.7773C9.81937 18.7197 9.60176 18.5724 9.42041 18.4487C9.23907 18.325 9.00439 18.165 8.89771 18.0924C8.79317 18.0177 8.56916 17.8641 8.40274 17.7511L8.09766 17.542V19.2082Z" fill="#F18817"/>
<path d="M14.2957 17.6966C14.189 17.7691 13.9266 17.9505 13.709 18.0977C13.4914 18.2449 13.1671 18.4668 12.99 18.5905C12.8108 18.7143 12.5249 18.9084 12.3542 19.0257C12.1836 19.141 12.0449 19.2434 12.0449 19.2519C12.0449 19.2604 12.2134 19.3778 12.4183 19.51C12.6231 19.6445 12.9346 19.845 13.1074 19.9581C13.2802 20.0712 13.6429 20.308 13.9117 20.4829C14.1826 20.6579 14.428 20.8179 14.4621 20.8392L14.5197 20.8776V19.222C14.5197 18.311 14.5112 17.5664 14.5027 17.5664C14.4941 17.5664 14.4003 17.6262 14.2957 17.6966Z" fill="#F18817"/>
<path d="M10.2293 19.7267C9.66819 20.0958 9.00682 20.531 8.55665 20.8211L8.2793 21.0004H11.3067H14.332L13.9522 20.7507C13.741 20.6142 13.3826 20.3816 13.1543 20.2323C12.926 20.083 12.5377 19.8312 12.2945 19.6712C12.0513 19.5091 11.84 19.3789 11.8272 19.3789C11.8016 19.3789 11.5435 19.5496 11.3984 19.6627L11.3173 19.7267L11.0635 19.5517C10.9227 19.4579 10.7968 19.3789 10.7818 19.381C10.7669 19.381 10.5173 19.5368 10.2293 19.7267Z" fill="#F18817"/>
</g>
</g>
</g>
<path d="M32.5759 35.558C22.7697 35.558 14.7969 27.5852 14.7969 17.779C14.7969 7.9728 22.7697 0 32.5759 0C42.3822 0 50.3549 7.9728 50.3549 17.779C50.3549 27.5852 42.3822 35.558 32.5759 35.558Z" fill="#C64A27"/>
<path d="M32.5755 33.3635C23.686 33.3635 16.4355 26.1408 16.4355 17.2235C16.4355 8.30623 23.686 1.11133 32.5755 1.11133C41.465 1.11133 48.7154 8.33403 48.7154 17.2513C48.7154 26.1686 41.465 33.3635 32.5755 33.3635Z" fill="#D35127"/>
<path d="M32.5754 2.2224C40.8537 2.2224 47.6042 8.9728 47.6042 17.2512C47.6042 25.5295 40.8537 32.28 32.5754 32.28C24.297 32.28 17.5466 25.5295 17.5466 17.2512C17.5466 8.9728 24.297 2.2224 32.5754 2.2224ZM32.5754 0C23.0469 0 15.3242 7.7228 15.3242 17.2512C15.3242 26.7796 23.0469 34.5024 32.5754 34.5024C42.1038 34.5024 49.8265 26.7796 49.8265 17.2512C49.8265 7.7228 42.1038 0 32.5754 0Z" fill="#F16924"/>
<path d="M32.5759 35.558C22.7697 35.558 14.7969 27.5852 14.7969 17.779C14.7969 7.9728 22.7697 0 32.5759 0C42.3822 0 50.3549 7.9728 50.3549 17.779C50.3549 27.5852 42.3822 35.558 32.5759 35.558Z" fill="#F18817"/>
<path d="M32.5755 33.3635C23.686 33.3635 16.4355 26.1408 16.4355 17.2235C16.4355 8.30623 23.686 1.11133 32.5755 1.11133C41.465 1.11133 48.7154 8.33403 48.7154 17.2513C48.7154 26.1686 41.465 33.3635 32.5755 33.3635Z" fill="#F9D337"/>
<path d="M32.8243 2.25445C41.222 2.25445 48.0699 9.10221 48.0699 17.5C48.0699 25.8977 41.222 32.7455 32.8243 32.7455C24.4265 32.7455 17.5787 25.8977 17.5787 17.5C17.5787 9.10221 24.4265 2.25445 32.8243 2.25445ZM32.8243 0C23.1583 0 15.3242 7.83418 15.3242 17.5C15.3242 27.1658 23.1583 35 32.8243 35C42.4901 35 50.3242 27.1658 50.3242 17.5C50.3242 7.83418 42.4901 0 32.8243 0Z" fill="#F6B50C"/>
<g style="mix-blend-mode:screen" opacity="0.2">
<path d="M18.5293 12.5167L36.9652 31.6825C38.8148 31.0214 40.5167 29.9781 41.9684 28.6154L21.4805 7.31538C20.1692 8.82438 19.1653 10.5937 18.5293 12.5167ZM46.3712 20.9028L28.8984 2.73828C27.7737 3.01488 26.685 3.43128 25.656 3.97848L45.1782 24.2732C45.7045 23.2036 46.105 22.072 46.3712 20.9028Z" fill="white"/>
</g>
<mask id="mask2_1269_964" style="mask-type:luminance" maskUnits="userSpaceOnUse" x="21" y="7" width="23" height="22">
<path d="M43.243 7.11133H21.9082V28.4461H43.243V7.11133Z" fill="white"/>
</mask>
<g mask="url(#mask2_1269_964)">
<g filter="url(#filter4_d_1269_964)">
<path d="M23.4188 11.4426L23.3164 11.545L23.325 15.0524C23.3378 18.4617 23.342 18.5556 23.4188 18.6153C23.4914 18.6665 23.901 18.6751 25.9278 18.6751H28.3514V18.035V17.395H26.3886H24.4258V17.0323V16.6696H26.3844H28.3472L28.36 16.5501L28.3728 16.4349L32.3752 16.4221L36.3733 16.4136V13.9601C36.3733 11.562 36.3733 11.5066 36.288 11.4212C36.2026 11.3359 36.1472 11.3359 29.8662 11.3359H23.5255L23.4188 11.4426ZM31.7991 12.9872L31.8119 13.3414H28.1168H24.4258V13.0085C24.4258 12.8251 24.4386 12.6586 24.4557 12.6458C24.4685 12.6288 26.1283 12.6202 28.1338 12.6245L31.7863 12.6373L31.7991 12.9872ZM31.7991 15.014L31.7863 15.3682H28.1168H24.4472L24.4344 15.014L24.4216 14.6641H28.1168H31.8119L31.7991 15.014Z" fill="#F18817"/>
<path d="M29.461 17.0968C29.4951 17.1267 30.2717 17.6728 31.9572 18.8249C32.6399 19.29 33.3098 19.7509 33.4506 19.849C33.5914 19.9471 33.8901 20.1519 34.112 20.3056C34.3339 20.4549 34.7222 20.7195 34.9739 20.8901L35.4305 21.2016L37.022 20.105C37.8968 19.5034 39.1427 18.6457 39.787 18.1977C40.4313 17.7539 41.0501 17.3272 41.1653 17.2547C41.2762 17.1821 41.3658 17.1053 41.3658 17.0925C41.3658 17.0797 38.6776 17.0669 35.3963 17.0712C32.1108 17.0712 29.4439 17.084 29.461 17.0968Z" fill="#F18817"/>
<path d="M28.9922 20.6382C28.9922 23.2922 29.005 23.9664 29.0476 23.9408C29.0732 23.9237 29.3975 23.7147 29.7602 23.4757C30.1229 23.2368 30.7587 22.8271 31.1683 22.5583C31.5779 22.2938 32.1839 21.9012 32.5124 21.6836C32.841 21.4702 33.2975 21.1758 33.5279 21.0265C33.7541 20.8771 33.9418 20.7406 33.9418 20.7235C33.9418 20.7065 33.7072 20.5315 33.4213 20.3352C33.1311 20.1389 32.7642 19.8872 32.5978 19.7763C32.4356 19.661 32.0004 19.3666 31.6377 19.1191C31.275 18.8717 30.8056 18.5516 30.5923 18.4066C30.3832 18.2572 29.9352 17.95 29.6023 17.7238L28.9922 17.3057V20.6382Z" fill="#F18817"/>
<path d="M41.3864 17.6128C41.1731 17.7579 40.6482 18.1206 40.213 18.415C39.7778 18.7094 39.1292 19.1532 38.775 19.4007C38.4166 19.6482 37.8448 20.0364 37.5035 20.2711C37.1621 20.5015 36.8848 20.7064 36.8848 20.7234C36.8848 20.7405 37.2219 20.9752 37.6315 21.2397C38.0411 21.5085 38.6641 21.9096 39.0097 22.1358C39.3553 22.3619 40.0807 22.8356 40.6184 23.1855C41.1603 23.5354 41.651 23.8554 41.7192 23.898L41.8344 23.9748V20.6637C41.8344 18.8417 41.8174 17.3525 41.8003 17.3525C41.7832 17.3525 41.5955 17.472 41.3864 17.6128Z" fill="#F18817"/>
<path d="M33.2535 21.674C32.1313 22.4122 30.8085 23.2827 29.9082 23.863L29.3535 24.2214H35.4083H41.4588L40.6993 23.7222C40.2769 23.4491 39.56 22.984 39.1035 22.6853C38.6469 22.3866 37.8703 21.8831 37.3839 21.5631C36.8974 21.2388 36.475 20.9785 36.4494 20.9785C36.3982 20.9785 35.8819 21.3199 35.5918 21.546L35.4296 21.674L34.9218 21.3242C34.6402 21.1364 34.3885 20.9785 34.3586 20.9828C34.3287 20.9828 33.8295 21.2943 33.2535 21.674Z" fill="#F18817"/>
</g>
</g>
<defs>
<filter id="filter0_f_1269_964" x="45.3711" y="7.88965" width="19.7793" height="19.7793" filterUnits="userSpaceOnUse" color-interpolation-filters="sRGB">
<feFlood flood-opacity="0" result="BackgroundImageFix"/>
<feBlend mode="normal" in="SourceGraphic" in2="BackgroundImageFix" result="shape"/>
<feGaussianBlur stdDeviation="0.5" result="effect1_foregroundBlur_1269_964"/>
</filter>
<filter id="filter1_d_1269_964" x="46.6309" y="14.5576" width="17.2598" height="20.4424" filterUnits="userSpaceOnUse" color-interpolation-filters="sRGB">
<feFlood flood-opacity="0" result="BackgroundImageFix"/>
<feColorMatrix in="SourceAlpha" type="matrix" values="0 0 0 0 0 0 0 0 0 0 0 0 0 0 0 0 0 0 127 0" result="hardAlpha"/>
<feOffset dy="10"/>
<feGaussianBlur stdDeviation="2"/>
<feComposite in2="hardAlpha" operator="out"/>
<feColorMatrix type="matrix" values="0 0 0 0 0 0 0 0 0 0 0 0 0 0 0 0 0 0 0.25 0"/>
<feBlend mode="normal" in2="BackgroundImageFix" result="effect1_dropShadow_1269_964"/>
<feBlend mode="normal" in="SourceGraphic" in2="effect1_dropShadow_1269_964" result="shape"/>
</filter>
<filter id="filter2_f_1269_964" x="0" y="7.88965" width="19.7793" height="19.7793" filterUnits="userSpaceOnUse" color-interpolation-filters="sRGB">
<feFlood flood-opacity="0" result="BackgroundImageFix"/>
<feBlend mode="normal" in="SourceGraphic" in2="BackgroundImageFix" result="shape"/>
<feGaussianBlur stdDeviation="0.5" result="effect1_foregroundBlur_1269_964"/>
</filter>
<filter id="filter3_d_1269_964" x="1.25977" y="14.5576" width="17.2598" height="20.4424" filterUnits="userSpaceOnUse" color-interpolation-filters="sRGB">
<feFlood flood-opacity="0" result="BackgroundImageFix"/>
<feColorMatrix in="SourceAlpha" type="matrix" values="0 0 0 0 0 0 0 0 0 0 0 0 0 0 0 0 0 0 127 0" result="hardAlpha"/>
<feOffset dy="10"/>
<feGaussianBlur stdDeviation="2"/>
<feComposite in2="hardAlpha" operator="out"/>
<feColorMatrix type="matrix" values="0 0 0 0 0 0 0 0 0 0 0 0 0 0 0 0 0 0 0.25 0"/>
<feBlend mode="normal" in2="BackgroundImageFix" result="effect1_dropShadow_1269_964"/>
<feBlend mode="normal" in="SourceGraphic" in2="effect1_dropShadow_1269_964" result="shape"/>
</filter>
<filter id="filter4_d_1269_964" x="19.3164" y="8.33594" width="26.5176" height="20.8857" filterUnits="userSpaceOnUse" color-interpolation-filters="sRGB">
<feFlood flood-opacity="0" result="BackgroundImageFix"/>
<feColorMatrix in="SourceAlpha" type="matrix" values="0 0 0 0 0 0 0 0 0 0 0 0 0 0 0 0 0 0 127 0" result="hardAlpha"/>
<feOffset dy="1"/>
<feGaussianBlur stdDeviation="2"/>
<feComposite in2="hardAlpha" operator="out"/>
<feColorMatrix type="matrix" values="0 0 0 0 0 0 0 0 0 0 0 0 0 0 0 0 0 0 0.25 0"/>
<feBlend mode="normal" in2="BackgroundImageFix" result="effect1_dropShadow_1269_964"/>
<feBlend mode="normal" in="SourceGraphic" in2="effect1_dropShadow_1269_964" result="shape"/>
</filter>
</defs>
</svg>
