<svg width="80" height="40" viewBox="0 0 80 40" fill="none" xmlns="http://www.w3.org/2000/svg">
<rect x="0.5" y="0.5" width="79" height="39" rx="3.5" fill="white" stroke="#C5C5C5"/>
<path fill-rule="evenodd" clip-rule="evenodd" d="M40.0859 31.2453C43.2328 28.4297 45.2203 24.2891 45.2203 19.6516C45.2203 15.0141 43.2328 10.9562 40.0859 8.05781C37.3531 5.57344 33.6266 4 29.6516 4C21.0391 4 14 11.0391 14 19.6516C14 28.2641 21.0391 35.2203 29.6516 35.2203C33.6266 35.3031 37.3531 33.7297 40.0859 31.2453Z" fill="#07A9E2"/>
<path fill-rule="evenodd" clip-rule="evenodd" d="M14 19.6516C14 28.2641 21.0391 35.2203 29.6516 35.2203C33.7094 35.2203 37.3531 33.7297 40.0859 31.1625C43.2328 28.3469 45.2203 24.2062 45.2203 19.5687C45.2203 14.9312 43.2328 10.9562 40.0859 8.05781C37.3531 5.57344 33.6266 4 29.6516 4" fill="#009DDD"/>
<path fill-rule="evenodd" clip-rule="evenodd" d="M40.0855 8.05781C37.3527 5.57344 33.6262 4 29.6512 4H28.9059C24.0199 7.56094 20.873 13.275 20.873 19.6516C20.873 26.0281 24.0199 31.7422 28.823 35.2203H29.5684C33.6262 35.2203 37.2699 33.7297 40.0027 31.1625C43.1496 28.3469 45.1371 24.2062 45.1371 19.5687C45.1371 14.9312 43.2324 10.9562 40.0855 8.05781Z" fill="#0284CC"/>
<path fill-rule="evenodd" clip-rule="evenodd" d="M50.6035 4C46.5457 4 42.902 5.49062 40.0863 8.05781C39.5066 8.55469 39.0098 9.13438 38.5129 9.71406H41.6598C42.0738 10.2109 42.4879 10.7906 42.8191 11.3703H37.2707C36.9395 11.95 36.6082 12.4469 36.3598 13.0266H43.7301C43.9785 13.6063 44.227 14.1031 44.3926 14.6828H35.7801C35.6145 15.2625 35.4488 15.7594 35.2832 16.3391H44.8895C45.1379 17.4156 45.2207 18.4922 45.2207 19.6516C45.2207 21.3906 44.9723 23.0469 44.3926 24.6203H35.7801C35.9457 25.2 36.1941 25.6969 36.4426 26.2766H43.8129C43.5645 26.8563 43.2332 27.4359 42.902 27.9328H37.3535C37.6848 28.5125 38.0988 29.0922 38.5129 29.5891H41.6598C41.1629 30.1688 40.666 30.7484 40.0863 31.2453C42.902 33.7297 46.5457 35.3031 50.6035 35.3031C59.216 35.3031 66.1723 28.3469 66.1723 19.7344C66.1723 11.0391 59.216 4 50.6035 4Z" fill="#FF2957"/>
<path fill-rule="evenodd" clip-rule="evenodd" d="M50.6035 4C46.5457 4 42.902 5.49062 40.0863 8.05781C39.5066 8.55469 39.0098 9.13438 38.5129 9.71406H41.6598C42.0738 10.2109 42.4879 10.7906 42.8191 11.3703H37.2707C36.9395 11.95 36.6082 12.4469 36.3598 13.0266H43.7301C43.9785 13.6063 44.227 14.1031 44.3926 14.6828H35.7801C35.6145 15.2625 35.4488 15.7594 35.2832 16.3391H44.8895C45.1379 17.4156 45.2207 18.4922 45.2207 19.6516C45.2207 21.3906 44.9723 23.0469 44.3926 24.6203H35.7801C35.9457 25.2 36.1941 25.6969 36.4426 26.2766H43.8129C43.5645 26.8563 43.2332 27.4359 42.902 27.9328H37.3535C37.6848 28.5125 38.0988 29.0922 38.5129 29.5891H41.6598C41.1629 30.1688 40.666 30.7484 40.0863 31.2453C42.902 33.7297 46.5457 35.3031 50.6035 35.3031C59.216 35.3031 66.1723 28.3469 66.1723 19.7344" fill="#ED1C2E"/>
<path fill-rule="evenodd" clip-rule="evenodd" d="M40.0859 31.2451C43.2328 28.4295 45.2203 24.2889 45.2203 19.6514C45.2203 15.0139 43.2328 10.9561 40.0859 8.05762V31.2451Z" fill="#0466B5"/>
<path fill-rule="evenodd" clip-rule="evenodd" d="M60.7891 23.0467C60.7891 22.7982 61.0375 22.5498 61.2859 22.5498C61.5344 22.5498 61.7828 22.7982 61.7828 23.0467C61.7828 23.2951 61.5344 23.5436 61.2859 23.5436C61.0375 23.5436 60.7891 23.2951 60.7891 23.0467ZM61.2859 23.4607C61.5344 23.4607 61.6172 23.2951 61.6172 23.0467C61.6172 22.7982 61.4516 22.7154 61.2859 22.7154C61.0375 22.7154 60.8719 22.8811 60.8719 23.0467C60.8719 23.2123 61.1203 23.4607 61.2859 23.4607ZM61.2859 23.2123H61.2031V22.7982H61.4516L61.5344 22.8811C61.5344 22.9639 61.5344 22.9639 61.4516 22.9639L61.5344 23.1295H61.4516L61.3688 22.9639H61.2859V23.2123ZM61.2859 22.9639H61.3688V22.8811H61.2859V22.9639Z" fill="white"/>
<path fill-rule="evenodd" clip-rule="evenodd" d="M40.0863 8.05767C39.5066 8.55455 39.0098 9.13424 38.5129 9.71392H41.6598C42.0738 10.2108 42.4879 10.7905 42.8191 11.3702H37.2707C36.9395 11.9499 36.6082 12.4467 36.3598 13.0264H43.7301C43.9785 13.6061 44.227 14.103 44.3926 14.6827H35.7801C35.6145 15.2624 35.4488 15.7592 35.2832 16.3389H44.8895C45.1379 17.4155 45.2207 18.492 45.2207 19.6514C45.2207 21.3905 44.9723 23.0467 44.3926 24.6202H35.7801C35.9457 25.1999 36.1941 25.6967 36.4426 26.2764H43.8129C43.5645 26.8561 43.2332 27.4358 42.902 27.9327H37.3535C37.6848 28.5124 38.0988 29.092 38.5129 29.5889H41.6598C41.1629 30.1686 40.666 30.7483 40.0863 31.2452C42.902 33.7295 46.5457 35.303 50.6035 35.303H51.3488C56.152 31.8249 59.2988 26.1108 59.2988 19.7342C59.2988 13.3577 56.152 7.64361 51.3488 4.16549H50.6035C46.5457 3.99986 42.902 5.5733 40.0863 8.05767Z" fill="#D1094B"/>
<path fill-rule="evenodd" clip-rule="evenodd" d="M27.6637 23.5438H25.6762L26.8355 17.4984L24.1855 23.5438H22.4465L22.1152 17.4984L20.9559 23.5438H19.2168L20.7074 15.5938H23.7715L23.9371 20.5625L26.0902 15.5938H29.2371L27.6637 23.5438Z" fill="white"/>
<path fill-rule="evenodd" clip-rule="evenodd" d="M25.7596 20.0656L26.9189 17.4984L26.008 22.3015C26.0908 22.7156 26.1736 23.2124 26.3393 23.6265H27.6643L29.1549 15.6765H26.2564C25.9252 16.9187 25.6768 18.3265 25.6768 19.7343C25.7596 19.8171 25.7596 19.9 25.7596 20.0656ZM49.3611 23.4609C48.7814 23.6265 48.4502 23.7093 47.9533 23.7093C46.9596 23.7093 46.4627 23.2125 46.4627 22.3015C46.4627 22.1359 46.4627 21.9703 46.5455 21.7218L46.6283 21.0593L46.7111 20.5624L47.6221 15.6765H49.5268L49.2783 17.1671H50.2721L50.0236 18.6578H49.0299L48.533 21.3078C48.533 21.3906 48.4502 21.5562 48.4502 21.5562C48.4502 21.8874 48.6986 22.0531 49.1127 22.0531C49.3611 22.0531 49.5268 22.0531 49.6096 21.9703L49.3611 23.4609ZM55.0752 17.1671C54.9096 17.0843 54.9096 17.0843 54.8268 17.0843C54.7439 17.0843 54.6611 17.0843 54.6611 17.0015H54.4127C53.7502 17.0015 53.3361 17.25 52.7564 18.0781L52.9221 17.0843H51.183L50.0236 23.5437H52.0111C52.6736 19.5687 53.0049 18.9062 53.9158 18.9062H54.1643L54.4127 18.989L55.0752 17.1671ZM41.6596 19.1546C41.6596 19.9828 42.1564 20.5625 43.1502 20.8937C43.9783 21.225 44.0611 21.3078 44.0611 21.639C44.0611 22.0531 43.7299 22.2187 42.9018 22.2187C42.3221 22.2187 41.7424 22.1359 41.1627 21.9703L40.9143 23.4609H40.9971L41.3283 23.5437H41.8252C42.3221 23.6265 42.6533 23.6265 42.9018 23.6265C44.9721 23.6265 45.9658 22.964 45.9658 21.4734C45.9658 20.5625 45.5518 20.0656 44.558 19.6515C43.7299 19.3203 43.6471 19.2375 43.6471 18.989C43.6471 18.6578 43.9783 18.4921 44.6408 18.4921C44.9721 18.4921 45.5518 18.4921 46.0486 18.575L46.2971 17.0843C45.8002 17.0015 45.0549 17.0015 44.558 17.0015C42.4049 17.0015 41.6596 17.9953 41.6596 19.1546ZM33.958 23.5437H32.3846V22.8812C31.8877 23.3781 31.2252 23.6265 30.3143 23.6265C29.2377 23.6265 28.5752 22.8812 28.5752 21.8875C28.5752 20.314 29.8174 19.4031 31.9705 19.4031H32.7986C32.8814 19.1546 32.8814 19.0718 32.8814 18.989C32.8814 18.575 32.5502 18.4093 31.6393 18.4093C31.0596 18.4093 30.4799 18.4921 30.0658 18.575L29.8174 18.6578H29.6518L29.9002 17.25C30.8939 17.0015 31.4736 16.9187 32.2189 16.9187C33.8752 16.9187 34.7861 17.5812 34.7861 18.8234C34.7861 19.1546 34.7861 19.4031 34.6205 20.1484L34.2064 22.4671L34.1236 22.8812L34.0408 23.2124V23.4609L33.958 23.5437ZM32.5502 20.6453H32.1361C31.0596 20.6453 30.4799 20.9765 30.4799 21.639C30.4799 22.0531 30.7283 22.3015 31.1424 22.3015C31.9705 22.3015 32.5502 21.639 32.5502 20.6453ZM40.3346 23.3781C39.6721 23.5437 39.0096 23.6265 38.3471 23.6265C36.1939 23.6265 35.0346 22.6328 35.0346 20.7281C35.0346 18.4921 36.4424 16.9187 38.4299 16.9187C40.0033 16.9187 40.9971 17.8296 40.9971 19.2375C40.9971 19.7343 40.9143 20.1484 40.7486 20.8109H36.8564V21.0593C36.8564 21.8046 37.4361 22.2187 38.5127 22.2187C39.258 22.2187 39.8377 22.1359 40.5003 21.8046L40.3346 23.3781ZM39.3408 19.5687V19.2375C39.3408 18.7406 39.0096 18.4093 38.4299 18.4093C37.8502 18.4093 37.3533 18.8234 37.1877 19.5687H39.3408Z" fill="#DCE5E5"/>
<path fill-rule="evenodd" clip-rule="evenodd" d="M61.1205 20.6453C60.7893 22.7984 59.2986 23.7093 57.3111 23.7093C55.158 23.7093 54.2471 22.3843 54.2471 20.7281C54.2471 18.4921 55.7377 16.9187 58.0564 16.9187C60.0439 16.9187 61.1205 18.2437 61.1205 19.8171V20.6453ZM59.0502 19.8171C59.0502 19.1546 58.8018 18.575 57.9736 18.575C56.9799 18.575 56.4002 19.7343 56.4002 20.8109C56.4002 21.639 56.8143 22.2187 57.4768 22.2187C57.8908 22.2187 58.8018 21.639 58.9674 20.6453C59.0502 20.314 59.0502 20.0656 59.0502 19.8171Z" fill="white"/>
<path fill-rule="evenodd" clip-rule="evenodd" d="M54.3297 21.4733C54.4125 20.8937 54.4953 20.2312 54.4953 19.6515V19.4858C54.4125 19.8999 54.3297 20.314 54.3297 20.8108C54.2469 20.9765 54.2469 21.2249 54.3297 21.4733Z" fill="white"/>
</svg>
