<svg width="80" height="40" viewBox="0 0 80 40" fill="none" xmlns="http://www.w3.org/2000/svg">
<rect x="0.5" y="0.5" width="79" height="39" rx="3.5" fill="white" stroke="#C5C5C5"/>
<path d="M15.512 23.266L14.947 20.493C14.9129 20.3146 14.8708 20.1377 14.821 19.963C14.7857 19.8336 14.7339 19.7092 14.667 19.593C14.616 19.5037 14.5426 19.4293 14.454 19.377C14.3571 19.327 14.249 19.3029 14.14 19.307H13.74L12.394 23.267H9L12.828 12H17.338C18.914 12 19.991 12.258 20.568 12.774C21.144 13.29 21.256 14.064 20.906 15.095C20.7706 15.5025 20.5762 15.8879 20.329 16.239C19.8581 16.9044 19.2261 17.4395 18.492 17.794C18.124 17.974 17.741 18.12 17.342 18.23L17.318 18.3C17.5944 18.4324 17.8331 18.6322 18.012 18.881C18.103 19.008 18.184 19.155 18.256 19.322C18.327 19.49 18.392 19.686 18.452 19.912L19.339 23.266H15.512ZM17.137 15.575C17.265 15.198 17.251 14.899 17.096 14.679C16.94 14.459 16.616 14.349 16.124 14.349H15.424L14.548 16.926H15.161C15.423 16.926 15.663 16.886 15.882 16.804C16.102 16.723 16.294 16.618 16.46 16.49C16.627 16.362 16.768 16.218 16.882 16.058C16.997 15.898 17.082 15.738 17.137 15.575ZM25.066 23.266L25.488 22.025H25.457C25.311 22.161 25.14 22.313 24.945 22.481C24.7386 22.6559 24.517 22.8122 24.283 22.948C24.0245 23.0978 23.751 23.2201 23.467 23.313C23.169 23.413 22.842 23.463 22.485 23.463C21.993 23.463 21.605 23.378 21.319 23.207C21.0437 23.0483 20.8328 22.7981 20.723 22.5C20.61 22.2 20.576 21.842 20.62 21.428C20.6745 20.9675 20.7798 20.5144 20.934 20.077L22.584 15.221H25.931L24.366 19.825C24.227 20.234 24.203 20.534 24.292 20.725C24.382 20.915 24.568 21.011 24.851 21.011C25.176 21.011 25.457 20.904 25.695 20.689C25.932 20.475 26.118 20.171 26.252 19.778L27.8 15.221H31.147L28.413 23.266H25.066ZM42.112 15.716C41.9175 16.2884 41.6255 16.823 41.249 17.296C40.8635 17.7817 40.4023 18.2021 39.883 18.541C39.353 18.889 38.761 19.16 38.106 19.354C37.4216 19.5517 36.7123 19.6493 36 19.644H34.963L33.733 23.266H30.338L34.167 12H38.787C39.525 12 40.157 12.065 40.68 12.196C41.204 12.327 41.61 12.541 41.9 12.836C42.19 13.133 42.355 13.516 42.397 13.988C42.438 14.459 42.343 15.035 42.112 15.716ZM38.482 15.834C38.572 15.567 38.606 15.344 38.582 15.166C38.567 15.0054 38.4983 14.8546 38.387 14.738C38.2687 14.6245 38.1224 14.5445 37.963 14.506C37.7719 14.4571 37.5752 14.4336 37.378 14.436H36.733L35.788 17.216H36.55C36.823 17.216 37.063 17.183 37.272 17.115C37.6638 16.993 37.9992 16.7352 38.218 16.388C38.326 16.218 38.414 16.033 38.482 15.834ZM45.054 23.266L45.47 22.041H45.439C45.036 22.486 44.589 22.834 44.098 23.086C43.6047 23.3379 43.0579 23.4672 42.504 23.463C42.096 23.463 41.761 23.399 41.501 23.27C41.258 23.1576 41.056 22.9724 40.923 22.74C40.7938 22.4973 40.7307 22.2248 40.74 21.95C40.742 21.65 40.803 21.326 40.92 20.98C41.02 20.687 41.159 20.393 41.337 20.1C41.5292 19.7908 41.7703 19.5148 42.051 19.283C42.3857 19.0094 42.7599 18.7882 43.161 18.627C43.605 18.441 44.141 18.309 44.769 18.23L46.853 17.97C46.8979 17.8527 46.9076 17.7248 46.881 17.602C46.853 17.492 46.792 17.3932 46.706 17.319C46.6039 17.2336 46.484 17.1721 46.355 17.139C46.1915 17.0944 46.0225 17.0728 45.853 17.075C45.586 17.075 45.313 17.098 45.033 17.142C44.753 17.187 44.479 17.245 44.211 17.319C43.9492 17.3901 43.6906 17.4725 43.436 17.566C43.187 17.658 42.956 17.751 42.74 17.846L43.48 15.669C43.702 15.585 43.96 15.504 44.257 15.425C44.554 15.347 44.862 15.279 45.183 15.221C45.504 15.163 45.823 15.116 46.139 15.08C46.4294 15.0449 46.7215 15.0265 47.014 15.025C47.747 15.025 48.335 15.105 48.779 15.265C49.222 15.424 49.542 15.662 49.738 15.979C49.934 16.296 50.017 16.692 49.987 17.166C49.957 17.64 49.834 18.194 49.618 18.827L48.11 23.267L45.054 23.266ZM45.121 19.739C44.851 19.781 44.616 19.866 44.418 19.994C44.2821 20.0813 44.1691 20.2 44.0885 20.3401C44.0079 20.4802 43.9621 20.6376 43.955 20.799C43.954 20.889 43.972 20.969 44.01 21.043C44.048 21.116 44.11 21.175 44.197 21.22C44.3069 21.2689 44.4268 21.2915 44.547 21.286C44.715 21.286 44.882 21.254 45.049 21.188C45.215 21.123 45.371 21.028 45.519 20.905C45.8341 20.6335 46.0704 20.2822 46.203 19.888L46.306 19.582L45.121 19.739ZM55.166 23.494C54.847 23.955 54.506 24.399 54.14 24.826C53.7834 25.2446 53.3843 25.625 52.949 25.961C52.519 26.291 52.053 26.554 51.549 26.751C51.0189 26.9519 50.4558 27.0516 49.889 27.045C49.5942 27.0412 49.3 27.0188 49.008 26.978C48.8358 26.954 48.6649 26.9213 48.496 26.88C48.3329 26.841 48.1734 26.7885 48.019 26.723L48.876 24.201C48.9459 24.269 49.0267 24.3247 49.115 24.366C49.212 24.413 49.314 24.456 49.422 24.492C49.6275 24.5621 49.8429 24.5992 50.06 24.602C50.346 24.6051 50.6291 24.5436 50.888 24.422C51.1514 24.2923 51.3793 24.1004 51.552 23.863L52.025 23.235L51.386 15.221H55.086L54.742 19.102C54.732 19.222 54.722 19.352 54.709 19.487C54.685 19.7458 54.6537 20.0039 54.615 20.261C54.596 20.379 54.575 20.48 54.552 20.564H54.583C54.672 20.38 54.787 20.164 54.929 19.915C55.071 19.667 55.227 19.401 55.396 19.118L57.687 15.221H60.94L55.166 23.494Z" fill="#004A8C"/>
<path fill-rule="evenodd" clip-rule="evenodd" d="M61.0278 28.924L65.9208 11L70.5788 20.263L61.0278 28.924Z" fill="#1AAF5D"/>
<path fill-rule="evenodd" clip-rule="evenodd" d="M58 28.9892L62.893 11.0662L67.551 20.3282L58 28.9892Z" fill="#F59D00"/>
</svg>
