<svg width="40" height="40" viewBox="0 0 40 40" fill="none" xmlns="http://www.w3.org/2000/svg">
<path d="M35.575 11.8668V24.2501C35.5116 25.5467 35.1784 26.8159 34.5967 27.9764C34.015 29.1369 33.1976 30.1634 32.1967 30.9901L25.03 36.3401C23.5649 37.3901 21.8025 37.9443 20 37.9218C18.1952 37.9435 16.4308 37.3869 14.965 36.3334L7.79838 30.9834C6.79922 30.157 5.98323 29.1314 5.40243 27.9721C4.82163 26.8128 4.48876 25.5452 4.42505 24.2501V11.8668C4.47711 10.5316 4.90904 9.23903 5.67012 8.14081C6.43121 7.04258 7.48984 6.18431 8.72172 5.66677L17.055 2.54511C18.9749 1.92344 21.0419 1.92344 22.9617 2.54511L31.2784 5.66677C32.5103 6.18431 33.5689 7.04258 34.33 8.14081C35.0911 9.23903 35.523 10.5316 35.575 11.8668Z" fill="#C7F1D1"/>
<path d="M31.2784 5.66677L22.9534 2.54511C21.0336 1.92344 18.9665 1.92344 17.0467 2.54511L8.72172 5.66677C7.48984 6.18431 6.43121 7.04258 5.67012 8.14081C4.90904 9.23903 4.47711 10.5316 4.42505 11.8668V24.2501C4.48847 25.5467 4.82168 26.8159 5.40338 27.9764C5.98509 29.1369 6.8025 30.1634 7.80338 30.9901L14.9701 36.3401C16.4352 37.3901 18.1976 37.9443 20.0001 37.9218C21.8042 37.9454 23.5685 37.3912 25.0351 36.3401L32.2017 30.9901C33.2026 30.1634 34.02 29.1369 34.6017 27.9764C35.1834 26.8159 35.5166 25.5467 35.58 24.2501V11.8668C35.5276 10.5311 35.0949 9.23808 34.3329 8.1398C33.5709 7.04151 32.5112 6.18356 31.2784 5.66677ZM33.075 24.2501C33.0119 25.1574 32.7695 26.0432 32.3618 26.8563C31.9542 27.6693 31.3894 28.3934 30.7001 28.9868L23.5334 34.3368C22.4865 35.0377 21.2549 35.4119 19.995 35.4119C18.7351 35.4119 17.5036 35.0377 16.4567 34.3368L9.29005 28.9868C8.60257 28.3926 8.03962 27.668 7.63369 26.855C7.22777 26.042 6.98692 25.1567 6.92505 24.2501V11.8668C6.97838 11.0403 7.25548 10.2438 7.72668 9.56272C8.19789 8.88161 8.84545 8.34147 9.60005 8.00011L17.9234 4.87844C19.2768 4.46425 20.7233 4.46425 22.0767 4.87844L30.4001 8.00011C31.1547 8.34147 31.8022 8.88161 32.2734 9.56272C32.7446 10.2438 33.0217 11.0403 33.075 11.8668V24.2501ZM25.8084 14.4168C25.9245 14.5329 26.0167 14.6707 26.0796 14.8224C26.1424 14.9741 26.1748 15.1367 26.1748 15.3009C26.1748 15.4652 26.1424 15.6278 26.0796 15.7795C26.0167 15.9312 25.9245 16.069 25.8084 16.1851L18.6417 23.3518C18.4071 23.5855 18.0895 23.7167 17.7584 23.7167C17.4273 23.7167 17.1096 23.5855 16.875 23.3518L14.1917 20.6668C13.9641 20.4309 13.8383 20.1151 13.8413 19.7874C13.8443 19.4596 13.9759 19.1462 14.2078 18.9145C14.4396 18.6829 14.7532 18.5515 15.081 18.5488C15.4087 18.5462 15.7244 18.6723 15.9601 18.9001L17.7617 20.7018L24.04 14.4234C24.156 14.3072 24.2938 14.2149 24.4454 14.1519C24.5971 14.0889 24.7597 14.0564 24.9239 14.0562C25.0881 14.0561 25.2507 14.0883 25.4025 14.151C25.5543 14.2137 25.6922 14.3057 25.8084 14.4218V14.4168Z" fill="#37C956"/>
</svg>
