<svg width="80" height="40" viewBox="0 0 80 40" fill="none" xmlns="http://www.w3.org/2000/svg">
<rect x="0.5" y="0.5" width="79" height="39" rx="3.5" fill="white" stroke="#C5C5C5"/>
<path d="M31.1001 28.6001L34.3001 10.6001H39.3001L36.2001 28.6001H31.1001Z" fill="#3C58BF"/>
<path d="M31.1001 28.6001L35.2001 10.6001H39.3001L36.2001 28.6001H31.1001Z" fill="#293688"/>
<path d="M54.3 10.8C53.3 10.4 51.7 10 49.7 10C44.7 10 41.1 12.5 41.1 16.1C41.1 18.8 43.6 20.2 45.6 21.1C47.6 22 48.2 22.6 48.2 23.4C48.2 24.6 46.6 25.2 45.2 25.2C43.2 25.2 42.1 24.9 40.4 24.2L39.7 23.9L39 28C40.2 28.5 42.4 29 44.7 29C50 29 53.5 26.5 53.5 22.7C53.5 20.6 52.2 19 49.2 17.7C47.4 16.8 46.3 16.3 46.3 15.4C46.3 14.6 47.2 13.8 49.2 13.8C50.9 13.8 52.1 14.1 53 14.5L53.5 14.7L54.3 10.8Z" fill="#3C58BF"/>
<path d="M54.3 10.8C53.3 10.4 51.7 10 49.7 10C44.7 10 42 12.5 42 16.1C42 18.8 43.6 20.2 45.6 21.1C47.6 22 48.2 22.6 48.2 23.4C48.2 24.6 46.6 25.2 45.2 25.2C43.2 25.2 42.1 24.9 40.4 24.2L39.7 23.9L39 28C40.2 28.5 42.4 29 44.7 29C50 29 53.5 26.5 53.5 22.7C53.5 20.6 52.2 19 49.2 17.7C47.4 16.8 46.3 16.3 46.3 15.4C46.3 14.6 47.2 13.8 49.2 13.8C50.9 13.8 52.1 14.1 53 14.5L53.5 14.7L54.3 10.8Z" fill="#293688"/>
<path d="M62.8998 10.6001C61.6998 10.6001 60.7998 10.7001 60.2998 11.9001L52.7998 28.6001H58.1998L59.1998 25.6001H65.5998L66.1998 28.6001H70.9998L66.7998 10.6001H62.8998ZM60.5998 22.6001C60.8998 21.7001 62.5998 17.3001 62.5998 17.3001C62.5998 17.3001 62.9998 16.2001 63.2998 15.5001L63.5998 17.2001C63.5998 17.2001 64.5998 21.7001 64.7998 22.7001H60.5998V22.6001Z" fill="#3C58BF"/>
<path d="M64.0998 10.6001C62.8998 10.6001 61.9998 10.7001 61.4998 11.9001L52.7998 28.6001H58.1998L59.1998 25.6001H65.5998L66.1998 28.6001H70.9998L66.7998 10.6001H64.0998ZM60.5998 22.6001C60.9998 21.6001 62.5998 17.3001 62.5998 17.3001C62.5998 17.3001 62.9998 16.2001 63.2998 15.5001L63.5998 17.2001C63.5998 17.2001 64.5998 21.7001 64.7998 22.7001H60.5998V22.6001Z" fill="#293688"/>
<path d="M21.8999 23.2002L21.3999 20.6002C20.4999 17.6002 17.5999 14.3002 14.3999 12.7002L18.8999 28.7002H24.2999L32.3999 10.7002H26.9999L21.8999 23.2002Z" fill="#3C58BF"/>
<path d="M21.8999 23.2002L21.3999 20.6002C20.4999 17.6002 17.5999 14.3002 14.3999 12.7002L18.8999 28.7002H24.2999L32.3999 10.7002H27.9999L21.8999 23.2002Z" fill="#293688"/>
<path d="M8 10.6001L8.9 10.8001C15.3 12.3001 19.7 16.1001 21.4 20.6001L19.6 12.1001C19.3 10.9001 18.4 10.6001 17.3 10.6001H8Z" fill="#FFBC00"/>
<path d="M8 10.6001C14.4 12.1001 19.7 16.0001 21.4 20.5001L19.7 13.4001C19.4 12.2001 18.4 11.5001 17.3 11.5001L8 10.6001Z" fill="#F7981D"/>
<path d="M8 10.6001C14.4 12.1001 19.7 16.0001 21.4 20.5001L20.2 16.6001C19.9 15.4001 19.5 14.2001 18.1 13.7001L8 10.6001Z" fill="#ED7C00"/>
<path d="M26.9 22.6001L23.5 19.2001L21.9 23.0001L21.5 20.5001C20.6 17.5001 17.7 14.2001 14.5 12.6001L19 28.6001H24.4L26.9 22.6001ZM36.2 28.6001L31.9 24.2001L31.1 28.6001H36.2ZM47.7 22.4001C48.1 22.8001 48.3 23.1001 48.2 23.5001C48.2 24.7001 46.6 25.3001 45.2 25.3001C43.2 25.3001 42.1 25.0001 40.4 24.3001L39.7 24.0001L39 28.1001C40.2 28.6001 42.4 29.1001 44.7 29.1001C47.9 29.1001 50.5 28.2001 52 26.6001L47.7 22.4001ZM53.5 28.6001H58.2L59.2 25.6001H65.6L66.2 28.6001H71L69.3 21.3001L63.3 15.5001L63.6 17.1001C63.6 17.1001 64.6 21.6001 64.8 22.6001H60.6C61 21.6001 62.6 17.3001 62.6 17.3001C62.6 17.3001 63 16.2001 63.3 15.5001" fill="#051244"/>
</svg>
