<svg width="80" height="40" viewBox="0 0 80 40" fill="none" xmlns="http://www.w3.org/2000/svg">
<rect x="0.5" y="0.5" width="79" height="39" rx="3.5" fill="white" stroke="#C5C5C5"/>
<path d="M46.8773 32.0483H32.4551V8.23462H46.8773V32.0483Z" fill="#FF5F00"/>
<path d="M33.3711 20.1428C33.3689 17.8496 33.9346 15.5859 35.0253 13.5232C36.116 11.4605 37.7032 9.65281 39.6667 8.23702C37.2352 6.48132 34.3153 5.38953 31.2405 5.08642C28.1657 4.78332 25.0601 5.28112 22.2786 6.52295C19.4972 7.76478 17.1521 9.70053 15.5113 12.109C13.8705 14.5174 13.0003 17.3014 13 20.1428C13.0006 22.9838 13.8709 25.7674 15.5116 28.1755C17.1523 30.5836 19.4971 32.5191 22.2782 33.7609C25.0592 35.0026 28.1644 35.5006 31.2388 35.1978C34.3132 34.895 37.233 33.8037 39.6644 32.0486C37.7016 30.6324 36.1151 28.8246 35.0248 26.762C33.9345 24.6993 33.369 22.4359 33.3711 20.1428Z" fill="#EB001B"/>
<path d="M66.3332 20.1428C66.3329 22.9842 65.4627 25.7682 63.8219 28.1767C62.1811 30.5851 59.836 32.5209 57.0545 33.7627C54.2731 35.0045 51.1675 35.5023 48.0927 35.1992C45.0179 34.8961 42.0979 33.8043 39.6665 32.0486C43.4998 29.2758 45.9621 24.9737 45.9621 20.1428C45.9621 15.3119 43.4998 11.0098 39.6665 8.23702C42.0979 6.48132 45.0179 5.38953 48.0927 5.08642C51.1675 4.78332 54.2731 5.28112 57.0545 6.52295C59.836 7.76478 62.1811 9.70053 63.8219 12.109C65.4627 14.5174 66.3329 17.3014 66.3332 20.1428Z" fill="#F79E1B"/>
</svg>
