<svg width="15" height="15" viewBox="0 0 15 15" fill="none" xmlns="http://www.w3.org/2000/svg">
<path d="M7.50067 14.0023C3.93533 14.0023 1.03516 11.1021 1.03516 7.53675C1.03516 3.9714 3.93533 1.07123 7.50067 1.07123C11.066 1.07123 13.9662 3.9714 13.9662 7.53675C13.9662 11.1021 11.066 14.0023 7.50067 14.0023ZM7.50067 2.10571C4.50585 2.10571 2.06964 4.54192 2.06964 7.53675C2.06964 10.5316 4.50585 12.9678 7.50067 12.9678C10.4955 12.9678 12.9317 10.5311 12.9317 7.53675C12.9317 4.54243 10.4955 2.10571 7.50067 2.10571Z" fill="white"/>
<path d="M7.49966 11.1574C7.36248 11.1574 7.23092 11.1029 7.13392 11.0059C7.03692 10.9089 6.98242 10.7773 6.98242 10.6402V4.43326C6.98242 4.29608 7.03692 4.16451 7.13392 4.06751C7.23092 3.97051 7.36248 3.91602 7.49966 3.91602C7.63684 3.91602 7.76841 3.97051 7.86541 4.06751C7.96241 4.16451 8.0169 4.29608 8.0169 4.43326V10.6402C8.0169 10.7773 7.96241 10.9089 7.86541 11.0059C7.76841 11.1029 7.63684 11.1574 7.49966 11.1574Z" fill="white"/>
<path d="M10.603 8.05395H4.39615C4.25897 8.05395 4.1274 7.99946 4.0304 7.90246C3.9334 7.80545 3.87891 7.67389 3.87891 7.53671C3.87891 7.39953 3.9334 7.26797 4.0304 7.17097C4.1274 7.07397 4.25897 7.01947 4.39615 7.01947H10.603C10.7402 7.01947 10.8718 7.07397 10.9688 7.17097C11.0658 7.26797 11.1203 7.39953 11.1203 7.53671C11.1203 7.67389 11.0658 7.80545 10.9688 7.90246C10.8718 7.99946 10.7402 8.05395 10.603 8.05395Z" fill="white"/>
</svg>
