<svg width="30" height="30" viewBox="0 0 30 30" fill="none" xmlns="http://www.w3.org/2000/svg">
<path d="M15 27.5C17.4723 27.5 19.889 26.7669 21.9446 25.3934C24.0002 24.0199 25.6024 22.0676 26.5485 19.7836C27.4946 17.4995 27.7421 14.9861 27.2598 12.5614C26.7775 10.1366 25.587 7.90933 23.8388 6.16117C22.0907 4.41301 19.8634 3.2225 17.4386 2.74019C15.0139 2.25787 12.5005 2.50542 10.2165 3.45151C7.93238 4.39761 5.98015 5.99976 4.60663 8.05538C3.23311 10.111 2.5 12.5277 2.5 15C2.5 18.3152 3.81696 21.4946 6.16117 23.8388C7.3219 24.9996 8.69989 25.9203 10.2165 26.5485C11.733 27.1767 13.3585 27.5 15 27.5ZM10.3663 14.1163C10.4823 14.0001 10.62 13.908 10.7717 13.8452C10.9233 13.7823 11.0859 13.75 11.25 13.75C11.4141 13.75 11.5767 13.7823 11.7283 13.8452C11.88 13.908 12.0177 14.0001 12.1337 14.1163L13.75 15.7324L17.8663 11.6163C18.102 11.3886 18.4178 11.2626 18.7455 11.2654C19.0732 11.2683 19.3868 11.3997 19.6185 11.6315C19.8503 11.8632 19.9817 12.1768 19.9846 12.5045C19.9874 12.8323 19.8614 13.148 19.6337 13.3838L14.6337 18.3838C14.5177 18.4999 14.38 18.592 14.2283 18.6548C14.0767 18.7177 13.9141 18.75 13.75 18.75C13.5859 18.75 13.4233 18.7177 13.2717 18.6548C13.12 18.592 12.9823 18.4999 12.8663 18.3838L10.3663 15.8838C10.2501 15.7677 10.158 15.63 10.0952 15.4783C10.0323 15.3267 9.99996 15.1642 9.99996 15C9.99996 14.8359 10.0323 14.6733 10.0952 14.5217C10.158 14.37 10.2501 14.2323 10.3663 14.1163Z" fill="#0C9100"/>
</svg>
