<svg width="25" height="25" viewBox="0 0 25 25" fill="none" xmlns="http://www.w3.org/2000/svg">
<path fill-rule="evenodd" clip-rule="evenodd" d="M8.33398 4.16667C8.33398 3.59137 8.80036 3.125 9.37565 3.125H21.8757C22.451 3.125 22.9173 3.59137 22.9173 4.16667V20.8333C22.9173 21.4086 22.451 21.875 21.8757 21.875H9.37565C8.80036 21.875 8.33398 21.4086 8.33398 20.8333V17.7083C8.33398 17.133 8.80036 16.6667 9.37565 16.6667C9.95094 16.6667 10.4173 17.133 10.4173 17.7083V19.7917H20.834V5.20833H10.4173V7.29167C10.4173 7.86696 9.95094 8.33333 9.37565 8.33333C8.80036 8.33333 8.33398 7.86696 8.33398 7.29167V4.16667ZM7.50806 8.11759C7.91485 8.5244 7.91485 9.18394 7.50806 9.59074L5.64045 11.4583H15.6257C16.201 11.4583 16.6673 11.9247 16.6673 12.5C16.6673 13.0753 16.201 13.5417 15.6257 13.5417H5.64045L7.50806 15.4093C7.91485 15.816 7.91485 16.4756 7.50806 16.8824C7.10126 17.2892 6.44171 17.2892 6.03491 16.8824L2.38908 13.2366C1.98229 12.8298 1.98229 12.1702 2.38908 11.7634L6.03491 8.11759C6.44171 7.7108 7.10126 7.7108 7.50806 8.11759Z" fill="url(#paint0_linear_163_279)"/>
<defs>
<linearGradient id="paint0_linear_163_279" x1="12.5007" y1="3.125" x2="12.5007" y2="21.875" gradientUnits="userSpaceOnUse">
<stop stop-color="#F857A6"/>
<stop offset="1" stop-color="#FF585A"/>
</linearGradient>
</defs>
</svg>
