<svg width="25" height="25" viewBox="0 0 25 25" fill="none" xmlns="http://www.w3.org/2000/svg">
<path d="M12.5004 2.08334C10.4801 2.08718 8.50444 2.67846 6.81418 3.78515C5.12391 4.89185 3.79196 6.4662 2.98054 8.31644C2.16913 10.1667 1.91329 12.2129 2.24417 14.206C2.57506 16.1991 3.47839 18.0529 4.84415 19.5417C5.81959 20.599 7.00346 21.4429 8.32117 22.02C9.63887 22.5972 11.0618 22.8951 12.5004 22.8951C13.939 22.8951 15.3619 22.5972 16.6796 22.02C17.9973 21.4429 19.1812 20.599 20.1566 19.5417C21.5224 18.0529 22.4257 16.1991 22.7566 14.206C23.0875 12.2129 22.8317 10.1667 22.0203 8.31644C21.2088 6.4662 19.8769 4.89185 18.1866 3.78515C16.4964 2.67846 14.5207 2.08718 12.5004 2.08334ZM12.5004 20.8333C10.3425 20.8301 8.2701 19.9899 6.71915 18.4896C7.19003 17.3433 7.99106 16.3628 9.02045 15.6728C10.0498 14.9828 11.2611 14.6144 12.5004 14.6144C13.7397 14.6144 14.9509 14.9828 15.9803 15.6728C17.0097 16.3628 17.8108 17.3433 18.2816 18.4896C16.7307 19.9899 14.6582 20.8301 12.5004 20.8333ZM10.4171 10.4167C10.4171 10.0046 10.5392 9.60184 10.7682 9.25924C10.9971 8.91664 11.3225 8.64961 11.7031 8.49193C12.0838 8.33424 12.5027 8.29299 12.9068 8.37337C13.311 8.45376 13.6822 8.65218 13.9735 8.94354C14.2649 9.2349 14.4633 9.60611 14.5437 10.0102C14.6241 10.4144 14.5828 10.8333 14.4251 11.2139C14.2675 11.5946 14.0004 11.92 13.6578 12.1489C13.3152 12.3778 12.9124 12.5 12.5004 12.5C11.9479 12.5 11.418 12.2805 11.0273 11.8898C10.6366 11.4991 10.4171 10.9692 10.4171 10.4167ZM19.6983 16.6667C18.7676 15.0748 17.3352 13.8365 15.6254 13.1458C16.1558 12.5444 16.5014 11.8028 16.6207 11.0098C16.74 10.2169 16.628 9.40638 16.2981 8.67553C15.9681 7.94468 15.4343 7.32455 14.7607 6.88956C14.0871 6.45456 13.3023 6.22319 12.5004 6.22319C11.6985 6.22319 10.9137 6.45456 10.2401 6.88956C9.56645 7.32455 9.03266 7.94468 8.70274 8.67553C8.37282 9.40638 8.2608 10.2169 8.38012 11.0098C8.49943 11.8028 8.84501 12.5444 9.3754 13.1458C7.6656 13.8365 6.23318 15.0748 5.30248 16.6667C4.56076 15.4032 4.16886 13.9651 4.16706 12.5C4.16706 10.2899 5.04504 8.17026 6.60784 6.60745C8.17064 5.04465 10.2903 4.16668 12.5004 4.16668C14.7105 4.16668 16.8302 5.04465 18.393 6.60745C19.9558 8.17026 20.8337 10.2899 20.8337 12.5C20.8319 13.9651 20.44 15.4032 19.6983 16.6667Z" fill="#6C6C6C"/>
</svg>
