<svg width="127" height="27" viewBox="0 0 127 27" fill="none" xmlns="http://www.w3.org/2000/svg">
<g clip-path="url(#clip0_602_554)">
<path d="M8.17524 7.0801L7.12524 10.9448L13.1352 7.0581L9.20458 21.7234L13.1966 21.7268L19.0032 0.0654297" fill="#3395FF" fill-opacity="0.5"/>
<path d="M1.70656 15.5614L0.0532227 21.7268H8.23522L11.5832 9.18476L1.70656 15.5614ZM30.1279 10.1334C29.9279 10.8768 29.5426 11.4228 28.9679 11.7714C28.3946 12.1194 27.5899 12.2941 26.5512 12.2941H23.2512L24.4099 7.97409H27.7099C28.7472 7.97409 29.4599 8.14743 29.8466 8.50076C30.2332 8.85409 30.3266 9.39409 30.1279 10.1408M33.5446 10.0474C33.9646 8.48743 33.7912 7.28742 33.0232 6.44742C32.2566 5.61409 30.9112 5.19409 28.9912 5.19409H21.6266L17.1932 21.7341H20.7712L22.5579 15.0674H24.9046C25.4312 15.0674 25.8459 15.1541 26.1486 15.3208C26.4519 15.4941 26.6299 15.7941 26.6846 16.2274L27.3232 21.7341H31.1566L30.5352 16.6008C30.4086 15.4541 29.8839 14.7808 28.9619 14.5808C30.1372 14.2408 31.1219 13.6741 31.9152 12.8874C32.703 12.1065 33.2659 11.1278 33.5446 10.0541M42.2419 15.8141C41.9419 16.9341 41.4819 17.7808 40.8599 18.3741C40.2372 18.9674 39.4932 19.2608 38.6252 19.2608C37.7412 19.2608 37.1419 18.9741 36.8252 18.3941C36.5079 17.8141 36.4972 16.9741 36.7919 15.8741C37.0866 14.7741 37.5566 13.9141 38.2032 13.2941C38.8499 12.6741 39.6059 12.3641 40.4739 12.3641C41.3406 12.3641 41.9339 12.6641 42.2339 13.2594C42.5406 13.8574 42.5472 14.7128 42.2472 15.8261L42.2419 15.8141ZM43.8099 9.96076L43.3619 11.6341C43.1686 11.0341 42.7932 10.5541 42.2386 10.1941C41.6826 9.84076 40.9946 9.66076 40.1739 9.66076C39.1672 9.66076 38.2006 9.92076 37.2739 10.4408C36.3472 10.9608 35.5339 11.6941 34.8406 12.6408C34.1472 13.5874 33.6406 14.6608 33.3139 15.8674C32.9939 17.0808 32.9272 18.1408 33.1206 19.0608C33.3206 19.9874 33.7406 20.6941 34.3872 21.1874C35.0406 21.6874 35.8739 21.9341 36.8939 21.9341C37.7044 21.9382 38.5058 21.7629 39.2406 21.4208C39.967 21.0931 40.6132 20.6107 41.1339 20.0074L40.6672 21.7514H44.1272L47.2866 9.96676H43.8199L43.8099 9.96076ZM59.7199 9.96076H49.6579L48.9546 12.5874H54.8092L47.0692 19.2741L46.4079 21.7408H56.7946L57.4979 19.1141H51.2246L59.0832 12.3274M68.5766 15.7941C68.2652 16.9541 67.8032 17.8261 67.1932 18.3941C66.5832 18.9674 65.8446 19.2541 64.9772 19.2541C63.1639 19.2541 62.5679 18.1008 63.1866 15.7941C63.4932 14.6474 63.9572 13.7854 64.5772 13.2048C65.1972 12.6221 65.9486 12.3314 66.8319 12.3314C67.6986 12.3314 68.2839 12.6201 68.5852 13.2014C68.8866 13.7814 68.8839 14.6461 68.5766 15.7928M70.6019 10.4041C69.8052 9.90809 68.7886 9.66009 67.5486 9.66009C66.2932 9.66009 65.1312 9.90676 64.0619 10.4001C62.997 10.8903 62.0611 11.6222 61.3286 12.5374C60.5752 13.4641 60.0332 14.5508 59.7006 15.7908C59.3739 17.0261 59.3339 18.1108 59.5872 19.0394C59.8406 19.9661 60.3739 20.6794 61.1739 21.1728C61.9806 21.6701 63.0072 21.9174 64.2672 21.9174C65.5072 21.9174 66.6606 21.6681 67.7206 21.1721C68.7806 20.6734 69.6872 19.9654 70.4406 19.0321C71.1939 18.1028 71.7339 17.0188 72.0672 15.7788C72.4006 14.5388 72.4406 13.4561 72.1872 12.5254C71.9339 11.5988 71.4072 10.8854 70.6139 10.3888M82.9539 13.1088L83.8406 9.90209C83.5406 9.74876 83.1472 9.66876 82.6539 9.66876C81.8606 9.66876 81.1006 9.86476 80.3672 10.2621C79.7366 10.5994 79.2006 11.0754 78.7472 11.6714L79.2072 9.94476L78.2026 9.94876H75.7359L72.5559 21.7288H76.0646L77.7146 15.5708C77.9546 14.6754 78.3866 13.9708 79.0099 13.4708C79.6299 12.9688 80.4032 12.7174 81.3366 12.7174C81.9099 12.7174 82.4432 12.8488 82.9499 13.1108M92.7166 15.8508C92.4166 16.9508 91.9632 17.7908 91.3432 18.3708C90.7232 18.9534 89.9766 19.2441 89.1099 19.2441C88.2432 19.2441 87.6499 18.9508 87.3366 18.3641C87.0166 17.7741 87.0099 16.9241 87.3099 15.8068C87.6099 14.6901 88.0699 13.8334 88.7032 13.2401C89.3366 12.6421 90.0832 12.3434 90.9499 12.3434C91.8032 12.3434 92.3766 12.6501 92.6832 13.2701C92.9899 13.8901 92.9966 14.7501 92.7019 15.8501M95.1552 10.4234C94.5052 9.90343 93.6752 9.64342 92.6686 9.64342C91.7866 9.64342 90.9459 9.84343 90.1486 10.2474C89.3519 10.6508 88.7052 11.2008 88.2086 11.8968L88.2206 11.8168L88.8092 9.94342H85.3826L84.5092 13.2034L84.4826 13.3168L80.8826 26.7461H84.3959L86.2092 19.9861C86.3892 20.5874 86.7559 21.0594 87.3159 21.4008C87.8759 21.7408 88.5672 21.9094 89.3892 21.9094C90.4092 21.9094 91.3826 21.6628 92.3059 21.1694C93.2326 20.6748 94.0326 19.9628 94.7126 19.0428C95.3926 18.1228 95.8972 17.0561 96.2192 15.8494C96.5459 14.6408 96.6126 13.5628 96.4259 12.6194C96.2359 11.6748 95.8152 10.9434 95.1659 10.4261M106.809 15.8028C106.509 16.9161 106.049 17.7694 105.429 18.3561C104.809 18.9468 104.063 19.2408 103.196 19.2408C102.309 19.2408 101.709 18.9541 101.396 18.3741C101.076 17.7941 101.069 16.9541 101.363 15.8541C101.656 14.7541 102.124 13.8941 102.771 13.2741C103.417 12.6541 104.174 12.3448 105.042 12.3448C105.909 12.3448 106.495 12.6448 106.802 13.2381C107.109 13.8334 107.111 14.6888 106.812 15.8048L106.809 15.8028ZM108.376 9.94609L107.927 11.6194C107.734 11.0161 107.361 10.5361 106.807 10.1794C106.247 9.82343 105.561 9.64609 104.741 9.64609C103.734 9.64609 102.762 9.90609 101.834 10.4261C100.907 10.9461 100.094 11.6754 99.4006 12.6194C98.7072 13.5634 98.2006 14.6394 97.8739 15.8461C97.5506 17.0574 97.4872 18.1194 97.6806 19.0434C97.8759 19.9634 98.2966 20.6741 98.9472 21.1701C99.5966 21.6634 100.434 21.9128 101.454 21.9128C102.274 21.9128 103.057 21.7421 103.801 21.3994C104.525 21.0702 105.17 20.5873 105.689 19.9841L105.223 21.7294H108.683L111.841 9.94943H108.381L108.376 9.94609ZM126.367 9.95009L126.369 9.94676H124.243C124.175 9.94676 124.115 9.95009 124.053 9.95143H122.949L122.383 10.7381L122.243 10.9248L122.183 11.0181L117.699 17.2634L116.773 9.95009H113.101L114.961 21.0634L110.854 26.7501H114.514L115.507 25.3414C115.535 25.3001 115.561 25.2654 115.594 25.2214L116.754 23.5748L116.787 23.5281L121.983 16.1614L126.363 9.96143L126.369 9.95743H126.367V9.95009Z" fill="#072654" fill-opacity="0.5"/>
</g>
<defs>
<clipPath id="clip0_602_554">
<rect width="126.4" height="26.8" fill="white"/>
</clipPath>
</defs>
</svg>
