<svg width="25" height="25" viewBox="0 0 25 25" fill="none" xmlns="http://www.w3.org/2000/svg">
<path d="M23.1947 0.291382H8.93593L4.25977 4.19221V10.3846H5.8041V5.36381H9.98537C10.1203 5.36359 10.2496 5.3099 10.345 5.2145C10.4404 5.11911 10.4941 4.98979 10.4943 4.85488V1.83571H22.1593V23.1643H5.8041V16.7294C5.55617 16.7814 5.30352 16.8077 5.05019 16.8076H4.8747C4.66864 16.8077 4.46294 16.7905 4.25978 16.7561V24.1997C4.25999 24.3346 4.31368 24.4639 4.40907 24.5593C4.50447 24.6547 4.63379 24.7084 4.7687 24.7086H23.1947C23.3296 24.7084 23.4589 24.6547 23.5543 24.5593C23.6497 24.4639 23.7034 24.3346 23.7036 24.1997V0.80031C23.7034 0.665398 23.6497 0.536073 23.5543 0.440677C23.4589 0.34528 23.3296 0.291594 23.1947 0.291382Z" fill="#6C6C6C"/>
<path d="M20.8184 6.57285H7.25391V7.62577H20.8184V6.57285Z" fill="#6C6C6C"/>
<path d="M20.8167 10.4004H14.6973C14.9819 10.441 15.2503 10.5575 15.4744 10.7377C15.6985 10.9178 15.8699 11.155 15.9706 11.4242C16.0025 11.432 16.0338 11.4417 16.0643 11.4534H20.8167V10.4004ZM20.8167 14.2279H15.8913C15.7694 14.6053 15.5878 14.9608 15.3536 15.2808H20.8167V14.2279Z" fill="#6C6C6C"/>
<path d="M20.8184 18.0553H7.25391V19.1082H20.8184V18.0553Z" fill="#6C6C6C"/>
<path d="M4.87496 16.1934H5.05045C5.7552 16.1928 6.43886 15.9529 6.98937 15.5129C7.53989 15.0729 7.92462 14.4589 8.0805 13.7716H9.14539C9.30166 14.4587 9.68649 15.0724 10.2369 15.5124C10.7874 15.9523 11.4708 16.1924 12.1754 16.1934H12.3509C12.9738 16.1923 13.582 16.0044 14.097 15.654C14.612 15.3036 15.0101 14.8069 15.2399 14.2279C15.3209 14.0242 15.3797 13.8124 15.4154 13.5961H15.7972C15.8327 13.5961 15.8667 13.582 15.8917 13.5569C15.9168 13.5318 15.9309 13.4979 15.931 13.4624V12.1515C15.9309 12.1161 15.9168 12.0821 15.8917 12.0571C15.8666 12.0321 15.8327 12.0181 15.7972 12.0181H15.4571V11.9816C15.4571 11.721 15.3536 11.471 15.1693 11.2867C14.985 11.1024 14.735 10.9989 14.4744 10.9988H10.052C9.79134 10.9989 9.5414 11.1024 9.3571 11.2867C9.1728 11.471 9.06925 11.721 9.06922 11.9816V12.473H8.15666V11.9816C8.15668 11.7346 8.06364 11.4967 7.89608 11.3152C7.72852 11.1337 7.49875 11.022 7.25253 11.0024C7.22655 10.9999 7.20058 10.9988 7.17391 10.9988H2.75151C2.62244 10.9988 2.49463 11.0242 2.37538 11.0736C2.25613 11.123 2.14778 11.1953 2.05652 11.2866C1.96525 11.3779 1.89287 11.4862 1.84349 11.6055C1.79411 11.7247 1.76872 11.8525 1.76875 11.9816V12.0181H1.4283C1.41078 12.0181 1.39343 12.0215 1.37725 12.0282C1.36106 12.0349 1.34636 12.0448 1.33397 12.0571C1.32159 12.0695 1.31176 12.0842 1.30506 12.1004C1.29836 12.1166 1.29492 12.134 1.29492 12.1515V13.4624C1.29489 13.4978 1.30892 13.5318 1.33393 13.5569C1.35894 13.5819 1.39288 13.5961 1.4283 13.5961H1.81052C1.93061 14.322 2.30464 14.9816 2.86592 15.4574C3.42719 15.9331 4.13921 16.1939 4.87496 16.1934ZM14.685 13.0872C14.6852 13.4868 14.5823 13.8797 14.3863 14.2279C14.1124 14.7154 13.6732 15.0889 13.148 15.2809C12.8926 15.374 12.6228 15.4215 12.3509 15.4213H12.1754C11.9033 15.4215 11.6333 15.374 11.3776 15.2809C10.8527 15.0885 10.4137 14.7151 10.1397 14.2279C10.0583 14.0833 9.99263 13.9303 9.94387 13.7716C9.92597 13.7141 9.91041 13.6556 9.89719 13.5961C9.86002 13.429 9.8413 13.2584 9.84138 13.0872V11.9816C9.84142 11.9258 9.86363 11.8722 9.90311 11.8327C9.94259 11.7933 9.99613 11.7711 10.052 11.771H14.4744C14.5302 11.7711 14.5838 11.7933 14.6232 11.8327C14.6627 11.8722 14.6849 11.9258 14.685 11.9816V13.0872ZM2.59708 13.5961C2.55962 13.4291 2.54078 13.2584 2.54092 13.0872V11.9816C2.54096 11.9258 2.56317 11.8722 2.60265 11.8327C2.64213 11.7933 2.69567 11.7711 2.75151 11.771H7.17391C7.22975 11.7711 7.28329 11.7933 7.32277 11.8327C7.36225 11.8722 7.38445 11.9258 7.3845 11.9816V13.0872C7.38458 13.2584 7.36586 13.429 7.32869 13.5961C7.31536 13.6554 7.2998 13.7139 7.28201 13.7716C7.13562 14.2492 6.83982 14.6673 6.43811 14.9642C6.03641 15.2612 5.55 15.4214 5.05046 15.4213H4.87496C4.34428 15.4216 3.82935 15.2409 3.4152 14.9091C3.00106 14.5773 2.71246 14.1141 2.59708 13.5961Z" fill="#307CB1"/>
</svg>
